<?xml version="1.0" encoding="UTF-8"?>
<svg xmlns="http://www.w3.org/2000/svg" xmlns:xlink="http://www.w3.org/1999/xlink" width="48pt" height="48pt" viewBox="0 0 48 48" version="1.1">
<g id="surface2022792">
<path style=" stroke:none;fill-rule:nonzero;fill:rgb(22.745098%,68.627453%,66.274512%);fill-opacity:1;" d="M 31.105469 41.859375 C 31.085938 41.492188 30.9375 41.015625 30.710938 40.726562 C 30.394531 40.332031 30 40.03125 29.652344 39.695312 C 28.929688 40.40625 28.144531 41.042969 27.300781 41.585938 C 27.355469 41.644531 27.394531 41.71875 27.414062 41.8125 C 27.570312 42.542969 27.898438 43.585938 28.492188 44.089844 C 29.164062 44.671875 30.148438 43.257812 30.5625 42.84375 C 30.804688 42.582031 31.125 42.253906 31.105469 41.859375 Z M 21.945312 44.691406 C 21.863281 44.390625 21.75 43.996094 21.589844 43.6875 C 20.886719 43.773438 20.164062 43.800781 19.445312 43.773438 C 19.339844 43.761719 19.226562 43.761719 19.125 43.753906 C 19.105469 44.679688 19.039062 45.617188 19.097656 46.546875 C 19.539062 46.566406 19.976562 46.601562 20.417969 46.585938 C 20.898438 46.566406 21.5625 46.554688 21.898438 46.152344 C 22.246094 45.742188 22.085938 45.167969 21.945312 44.691406 Z M 11.550781 41.023438 C 11.242188 41.726562 10.632812 42.261719 10.378906 42.992188 C 10.078125 43.894531 11.210938 44.390625 11.859375 44.625 C 12.242188 44.765625 12.703125 44.914062 13.125 44.878906 C 13.433594 44.851562 13.425781 44.773438 13.527344 44.457031 C 13.753906 43.789062 13.808594 43.085938 13.996094 42.421875 C 13.144531 42.039062 12.328125 41.570312 11.550781 41.023438 Z M 34.949219 32.652344 C 34.667969 32.316406 33.835938 32.503906 33.441406 32.511719 C 33.335938 33.414062 33.101562 34.292969 32.757812 35.128906 C 32.765625 35.148438 32.765625 35.164062 32.765625 35.195312 C 32.839844 35.726562 33.394531 35.886719 33.871094 35.820312 C 34.40625 35.746094 34.773438 35.34375 34.988281 34.867188 C 35.257812 34.257812 35.417969 33.214844 34.949219 32.652344 Z M 32.269531 30.019531 C 31.714844 27.863281 30.355469 26.023438 28.726562 24.554688 C 27.074219 23.054688 25.144531 21.804688 23.109375 20.898438 C 21.027344 19.96875 18.710938 19.492188 16.445312 19.835938 C 14.136719 20.195312 12.054688 21.394531 10.5 23.109375 C 8.820312 24.957031 7.585938 27.214844 7.304688 29.726562 C 7.03125 32.183594 7.632812 34.613281 8.558594 36.871094 C 10.621094 39.394531 13.378906 41.464844 16.566406 42.300781 C 18.132812 42.710938 19.753906 42.84375 21.328125 42.675781 C 21.488281 42.421875 21.804688 42.300781 22.058594 42.570312 C 23.445312 42.335938 24.789062 41.878906 26.035156 41.148438 C 27.113281 40.519531 28.125 39.75 29.015625 38.867188 C 28.996094 38.839844 28.976562 38.804688 28.96875 38.773438 C 28.753906 38.304688 29.296875 37.996094 29.679688 38.164062 C 30.160156 37.613281 30.601562 37.023438 30.976562 36.394531 C 32.109375 34.472656 32.839844 32.25 32.269531 30.019531 Z M 28.6875 32.015625 C 28.425781 36.582031 23.71875 38.851562 19.679688 39.273438 C 17.792969 39.46875 15.835938 38.992188 14.195312 38.042969 C 12.710938 37.191406 11.382812 35.898438 11.0625 34.191406 C 11.023438 34.125 10.996094 34.039062 10.996094 33.9375 C 10.996094 32.898438 10.96875 31.847656 11.023438 30.804688 C 11.136719 28.566406 11.757812 26.304688 13.613281 24.890625 C 15.414062 23.511719 17.792969 23.007812 20.023438 23.203125 C 22.273438 23.398438 24.328125 24.394531 25.929688 25.988281 C 27.496094 27.554688 28.820312 29.71875 28.6875 32.015625 Z M 28.6875 32.015625 "/>
<path style=" stroke:none;fill-rule:nonzero;fill:rgb(22.745098%,68.627453%,66.274512%);fill-opacity:1;" d="M 20.296875 30.609375 C 19.855469 29.195312 17.257812 29.605469 17.304688 31.105469 C 17.304688 31.171875 17.296875 31.238281 17.277344 31.292969 C 17.289062 32.089844 18.308594 32.539062 19.023438 32.523438 C 19.40625 32.511719 19.894531 32.410156 20.101562 32.035156 C 20.316406 31.640625 20.429688 31.050781 20.296875 30.609375 Z M 8.277344 38.128906 C 8.015625 37.828125 7.753906 37.527344 7.507812 37.210938 C 7.398438 37.070312 7.378906 36.929688 7.414062 36.804688 C 7.246094 36.375 7.097656 35.945312 6.957031 35.503906 C 6.28125 35.605469 5.335938 35.679688 4.882812 36.1875 C 4.339844 36.804688 4.726562 37.882812 5.089844 38.492188 C 5.277344 38.804688 5.558594 39.261719 5.953125 39.347656 C 6.234375 39.402344 6.347656 39.335938 6.628906 39.1875 C 6.976562 39 7.3125 38.804688 7.640625 38.585938 C 7.78125 38.492188 7.921875 38.398438 8.0625 38.296875 C 8.25 38.15625 8.203125 38.117188 8.128906 38.371094 C 8.164062 38.269531 8.210938 38.183594 8.277344 38.128906 Z M 16.96875 16.621094 C 16.867188 16.332031 16.78125 16.199219 16.472656 16.144531 C 16.097656 16.078125 15.722656 16.070312 15.335938 16.105469 C 15.039062 16.132812 14.597656 16.144531 14.34375 16.320312 C 14.136719 16.460938 14.15625 16.902344 14.203125 17.175781 C 14.324219 17.859375 14.625 18.488281 14.804688 19.152344 C 15.554688 18.929688 16.332031 18.789062 17.109375 18.722656 C 17.15625 18.027344 17.203125 17.269531 16.96875 16.621094 Z M 32.972656 23.625 C 32.632812 23.183594 32.296875 22.285156 31.648438 22.742188 C 31.339844 22.960938 31.097656 23.222656 30.824219 23.476562 C 30.570312 23.710938 30.195312 23.878906 30.054688 24.207031 C 30.039062 24.253906 30.019531 24.289062 29.992188 24.320312 C 30.402344 24.730469 30.796875 25.171875 31.164062 25.640625 C 31.351562 25.875 31.527344 26.117188 31.695312 26.371094 C 32.25 26.148438 32.953125 26.007812 33.367188 25.574219 C 33.9375 24.964844 33.394531 24.179688 32.972656 23.625 Z M 25.070312 17.445312 C 24.382812 17.089844 23.773438 16.894531 23.316406 17.652344 C 22.949219 18.253906 22.753906 18.945312 22.789062 19.640625 C 23.578125 19.949219 24.335938 20.304688 25.078125 20.71875 C 25.902344 19.742188 26.511719 18.207031 25.070312 17.445312 Z M 10.507812 21.628906 C 10.386719 20.820312 9.609375 19.894531 8.898438 19.527344 C 8.605469 19.378906 8.335938 19.304688 8.054688 19.507812 C 7.742188 19.742188 7.480469 20.042969 7.246094 20.351562 C 6.910156 20.8125 6.160156 21.804688 6.570312 22.367188 C 7.070312 23.054688 7.828125 23.484375 8.390625 24.113281 C 8.398438 24.101562 8.410156 24.085938 8.417969 24.074219 C 9.027344 23.195312 9.730469 22.367188 10.519531 21.636719 C 10.519531 21.636719 10.519531 21.636719 10.507812 21.628906 Z M 4.789062 26.597656 C 4.144531 26.679688 4.058594 27.46875 4.003906 27.992188 C 3.929688 28.601562 3.804688 29.4375 4.023438 30.027344 C 4.152344 30.394531 4.425781 30.414062 4.773438 30.402344 C 5.15625 30.394531 5.550781 30.382812 5.925781 30.496094 C 6.046875 30.535156 6.140625 30.601562 6.207031 30.683594 C 6.207031 30.570312 6.214844 30.460938 6.214844 30.347656 C 6.273438 29.183594 6.515625 28.050781 6.910156 26.972656 C 6.214844 26.839844 5.484375 26.511719 4.789062 26.597656 Z M 30.871094 8.035156 C 30.335938 7.742188 29.914062 7.199219 29.34375 6.976562 C 28.96875 6.824219 28.398438 7.226562 28.339844 7.613281 C 28.246094 8.175781 28.753906 8.324219 29.183594 8.492188 C 29.523438 8.625 29.878906 8.765625 30.167969 8.980469 C 30.214844 8.90625 30.261719 8.832031 30.320312 8.765625 C 30.496094 8.511719 30.683594 8.269531 30.882812 8.042969 C 30.882812 8.035156 30.871094 8.035156 30.871094 8.035156 Z M 32.710938 16.5 C 32.476562 16.96875 32.175781 17.410156 31.882812 17.851562 C 32.605469 18.09375 33.347656 18.320312 34.070312 18.582031 C 34.246094 18.074219 34.285156 17.539062 34.378906 17.007812 C 33.789062 16.914062 33.234375 16.742188 32.710938 16.5 Z M 37.808594 10.273438 C 37.332031 9.308594 35.925781 8.992188 34.949219 9.09375 C 33.769531 9.214844 32.90625 9.9375 33.019531 11.183594 C 33.027344 11.324219 33 11.4375 32.933594 11.523438 C 33.308594 12.882812 34.835938 13.425781 36.121094 13.070312 C 37.273438 12.75 38.429688 11.53125 37.808594 10.273438 Z M 39.460938 15.683594 C 39.121094 15.964844 38.757812 16.210938 38.371094 16.40625 C 38.4375 16.59375 38.457031 16.808594 38.476562 16.976562 C 38.523438 17.363281 38.585938 17.738281 38.710938 18.101562 C 38.914062 18.742188 40.070312 17.792969 40.546875 17.363281 C 40.40625 16.726562 39.863281 16.191406 39.460938 15.683594 Z M 40.171875 6.054688 C 39.851562 5.867188 39.46875 5.605469 39.09375 5.550781 C 39.046875 5.550781 38.972656 5.550781 38.933594 5.570312 C 38.851562 5.605469 38.785156 5.671875 38.726562 5.746094 C 38.671875 5.820312 38.625 5.898438 38.578125 5.972656 C 38.699219 6.242188 38.617188 6.589844 38.304688 6.675781 C 38.914062 6.976562 39.476562 7.367188 39.964844 7.847656 C 40.003906 7.828125 40.03125 7.808594 40.078125 7.800781 C 40.386719 7.695312 40.546875 7.03125 40.574219 6.742188 C 40.613281 6.328125 40.492188 6.242188 40.171875 6.054688 Z M 29.550781 13.070312 C 29.464844 13.011719 29.390625 12.929688 29.34375 12.804688 C 29.195312 12.394531 29.15625 11.972656 29.183594 11.550781 C 28.820312 11.691406 28.445312 11.765625 28.03125 11.820312 C 27.730469 11.859375 26.953125 11.886719 26.972656 12.347656 C 26.992188 13.023438 27.335938 13.660156 27.542969 14.316406 C 27.796875 14.257812 28.050781 14.15625 28.285156 14.0625 C 28.472656 13.976562 28.667969 13.902344 28.847656 13.800781 C 28.902344 13.773438 29.164062 13.546875 29.082031 13.679688 C 29.230469 13.453125 29.476562 13.398438 29.679688 13.445312 C 29.644531 13.3125 29.597656 13.191406 29.550781 13.070312 Z M 34.714844 5.128906 C 34.621094 4.6875 34.519531 4.667969 34.078125 4.707031 C 33.851562 4.726562 33.617188 4.753906 33.414062 4.855469 C 33.320312 4.902344 33.027344 5.015625 32.980469 5.117188 C 32.859375 5.398438 33.347656 6.027344 33.476562 6.28125 C 33.9375 6.132812 34.425781 6.039062 34.914062 6 C 34.808594 5.726562 34.773438 5.417969 34.714844 5.128906 Z M 41.503906 11.054688 C 41.578125 11.839844 41.457031 12.648438 41.15625 13.398438 C 41.523438 13.285156 41.980469 13.332031 42.367188 13.359375 C 42.535156 12.675781 42.804688 11.992188 42.835938 11.289062 C 42.382812 11.242188 41.945312 11.15625 41.503906 11.054688 Z M 41.503906 11.054688 "/>
<path style=" stroke:none;fill-rule:nonzero;fill:rgb(22.745098%,68.627453%,66.274512%);fill-opacity:1;" d="M 37.949219 7.648438 C 36.328125 6.816406 34.320312 6.75 32.746094 7.753906 C 31.949219 8.257812 31.285156 9.039062 30.824219 9.863281 C 30.515625 10.425781 30.214844 11.089844 30.207031 11.746094 C 30.273438 11.820312 30.328125 11.914062 30.347656 12.039062 C 30.835938 15.226562 34.492188 16.835938 37.367188 15.742188 C 39.019531 15.113281 40.339844 13.59375 40.492188 11.792969 C 40.648438 10.023438 39.476562 8.429688 37.949219 7.648438 Z M 38.652344 12.328125 C 37.132812 15.1875 32.203125 14.671875 31.847656 11.257812 C 31.828125 11.089844 31.882812 10.960938 31.976562 10.867188 C 32.015625 9.601562 32.8125 8.539062 34.085938 8.203125 C 35.34375 7.867188 36.769531 8.042969 37.835938 8.8125 C 38.972656 9.617188 39.308594 11.101562 38.652344 12.328125 Z M 38.652344 12.328125 "/>
<path style=" stroke:none;fill-rule:nonzero;fill:rgb(0.392157%,0.392157%,0.392157%);fill-opacity:1;" d="M 35.90625 32.242188 C 35.398438 31.332031 34.386719 31.460938 33.488281 31.480469 C 33.460938 29.992188 32.980469 28.554688 32.242188 27.261719 C 33.007812 26.953125 33.863281 26.710938 34.339844 25.988281 C 35.023438 24.957031 34.398438 23.820312 33.742188 22.949219 C 33.160156 22.179688 32.550781 21.214844 31.425781 21.683594 C 30.964844 21.882812 30.589844 22.257812 30.234375 22.59375 C 29.886719 22.929688 29.445312 23.175781 29.195312 23.585938 C 28.226562 22.726562 27.167969 21.976562 26.0625 21.300781 C 26.023438 21.28125 25.996094 21.261719 25.960938 21.242188 C 26.511719 20.558594 26.953125 19.734375 26.972656 18.835938 C 27 17.792969 26.371094 17.007812 25.5 16.519531 C 24.515625 15.957031 23.492188 15.871094 22.6875 16.742188 C 22.085938 17.390625 21.769531 18.367188 21.730469 19.273438 C 21.054688 19.070312 20.363281 18.898438 19.660156 18.796875 C 19.152344 18.722656 18.648438 18.683594 18.132812 18.675781 C 18.148438 17.773438 18.195312 16.808594 17.8125 15.984375 C 17.34375 15 16.199219 14.992188 15.253906 15.054688 C 14.296875 15.121094 13.359375 15.402344 13.164062 16.453125 C 12.964844 17.511719 13.621094 18.46875 13.835938 19.472656 C 13.742188 19.507812 13.648438 19.546875 13.554688 19.59375 C 12.769531 19.941406 12.039062 20.382812 11.363281 20.898438 C 11.023438 19.996094 10.304688 19.210938 9.523438 18.695312 C 9.054688 18.382812 8.523438 18.273438 7.96875 18.382812 C 7.472656 18.496094 7.050781 18.957031 6.730469 19.3125 C 6.101562 20.023438 5.242188 21.234375 5.417969 22.246094 C 5.625 23.4375 6.945312 23.945312 7.632812 24.804688 C 7.6875 24.882812 7.753906 24.929688 7.820312 24.957031 C 7.632812 25.285156 7.453125 25.632812 7.292969 25.976562 C 6.347656 25.855469 5.34375 25.339844 4.378906 25.601562 C 3.429688 25.855469 3.113281 26.804688 2.992188 27.675781 C 2.867188 28.527344 2.757812 29.578125 3.054688 30.414062 C 3.242188 30.929688 3.648438 31.265625 4.179688 31.386719 C 4.6875 31.5 5.210938 31.359375 5.71875 31.5 C 5.933594 31.566406 6.101562 31.492188 6.195312 31.351562 C 6.234375 32.410156 6.394531 33.460938 6.65625 34.480469 C 5.691406 34.640625 4.59375 34.820312 3.976562 35.617188 C 3.1875 36.648438 3.675781 38.15625 4.285156 39.148438 C 4.867188 40.097656 5.859375 40.660156 6.917969 40.164062 C 7.398438 39.9375 7.847656 39.664062 8.289062 39.375 C 8.511719 39.226562 8.785156 39.066406 8.960938 38.851562 C 9.507812 39.394531 10.078125 39.910156 10.679688 40.378906 C 10.667969 40.40625 10.660156 40.433594 10.648438 40.460938 C 10.386719 41.492188 9.289062 42.113281 9.300781 43.257812 C 9.308594 44.523438 10.453125 45.195312 11.503906 45.570312 C 12.402344 45.890625 13.679688 46.21875 14.289062 45.261719 C 14.738281 44.558594 14.765625 43.632812 14.953125 42.804688 C 15.957031 43.191406 17.007812 43.460938 18.09375 43.621094 C 18.074219 44.765625 17.980469 45.917969 18.101562 47.0625 C 18.132812 47.363281 18.375 47.53125 18.65625 47.539062 C 20.035156 47.550781 21.992188 47.953125 22.867188 46.554688 C 23.269531 45.910156 23.128906 45.148438 22.941406 44.445312 C 22.855469 44.136719 22.761719 43.808594 22.621094 43.5 C 23.953125 43.226562 25.226562 42.742188 26.410156 42.085938 C 26.410156 42.101562 26.417969 42.121094 26.417969 42.132812 C 26.632812 43.105469 27.113281 44.269531 27.890625 44.925781 C 28.902344 45.796875 30.140625 44.757812 30.835938 44.007812 C 31.21875 43.585938 31.640625 43.210938 31.921875 42.703125 C 32.175781 42.234375 32.15625 41.710938 32.035156 41.203125 C 31.894531 40.632812 31.574219 40.085938 31.152344 39.683594 C 30.898438 39.441406 30.582031 39.207031 30.308594 38.945312 C 30.617188 38.597656 30.910156 38.230469 31.191406 37.855469 C 31.566406 37.351562 31.902344 36.816406 32.203125 36.253906 C 32.539062 36.609375 33.027344 36.804688 33.582031 36.835938 C 34.585938 36.871094 35.277344 36.320312 35.792969 35.511719 C 36.375 34.613281 36.441406 33.1875 35.90625 32.242188 Z M 30.046875 24.214844 C 30.1875 23.886719 30.5625 23.71875 30.816406 23.484375 C 31.085938 23.230469 31.339844 22.96875 31.640625 22.753906 C 32.289062 22.292969 32.632812 23.195312 32.960938 23.632812 C 33.382812 24.1875 33.929688 24.964844 33.355469 25.585938 C 32.945312 26.023438 32.242188 26.15625 31.6875 26.382812 C 31.519531 26.128906 31.339844 25.882812 31.152344 25.648438 C 30.789062 25.191406 30.394531 24.75 29.980469 24.328125 C 30.007812 24.289062 30.027344 24.253906 30.046875 24.214844 Z M 23.316406 17.664062 C 23.773438 16.902344 24.382812 17.101562 25.070312 17.457031 C 26.523438 18.207031 25.902344 19.742188 25.078125 20.726562 C 24.335938 20.324219 23.578125 19.960938 22.789062 19.648438 C 22.742188 18.957031 22.949219 18.261719 23.316406 17.664062 Z M 14.351562 16.320312 C 14.605469 16.144531 15.046875 16.132812 15.347656 16.105469 C 15.722656 16.070312 16.105469 16.078125 16.480469 16.144531 C 16.78125 16.199219 16.875 16.332031 16.976562 16.621094 C 17.203125 17.277344 17.15625 18.027344 17.136719 18.730469 C 16.359375 18.796875 15.582031 18.9375 14.832031 19.164062 C 14.652344 18.496094 14.34375 17.867188 14.230469 17.183594 C 14.164062 16.902344 14.15625 16.472656 14.351562 16.320312 Z M 6.570312 22.378906 C 6.160156 21.816406 6.910156 20.820312 7.246094 20.363281 C 7.480469 20.054688 7.734375 19.742188 8.054688 19.519531 C 8.335938 19.3125 8.605469 19.386719 8.898438 19.539062 C 9.609375 19.902344 10.386719 20.832031 10.507812 21.636719 L 10.507812 21.648438 C 9.722656 22.367188 9.019531 23.195312 8.410156 24.085938 C 8.398438 24.09375 8.390625 24.113281 8.382812 24.121094 C 7.828125 23.492188 7.070312 23.0625 6.570312 22.378906 Z M 6.214844 30.355469 C 6.207031 30.46875 6.207031 30.582031 6.207031 30.695312 C 6.140625 30.609375 6.046875 30.542969 5.925781 30.507812 C 5.550781 30.394531 5.164062 30.402344 4.773438 30.414062 C 4.425781 30.421875 4.152344 30.402344 4.023438 30.039062 C 3.804688 29.4375 3.929688 28.613281 4.003906 28.003906 C 4.070312 27.476562 4.144531 26.679688 4.789062 26.605469 C 5.484375 26.523438 6.214844 26.851562 6.898438 26.992188 C 6.515625 28.058594 6.273438 29.195312 6.214844 30.355469 Z M 8.128906 38.371094 C 8.203125 38.117188 8.25 38.15625 8.0625 38.296875 C 7.921875 38.398438 7.78125 38.492188 7.640625 38.585938 C 7.3125 38.804688 6.976562 39 6.628906 39.1875 C 6.335938 39.335938 6.234375 39.402344 5.953125 39.347656 C 5.570312 39.273438 5.277344 38.804688 5.089844 38.492188 C 4.714844 37.875 4.339844 36.796875 4.882812 36.1875 C 5.335938 35.671875 6.28125 35.597656 6.957031 35.503906 C 7.097656 35.945312 7.246094 36.375 7.414062 36.804688 C 7.378906 36.929688 7.398438 37.078125 7.507812 37.210938 C 7.761719 37.527344 8.015625 37.828125 8.277344 38.128906 C 8.210938 38.183594 8.164062 38.269531 8.128906 38.371094 Z M 13.539062 44.464844 C 13.433594 44.773438 13.445312 44.859375 13.132812 44.886719 C 12.722656 44.914062 12.253906 44.765625 11.867188 44.632812 C 11.222656 44.398438 10.078125 43.902344 10.386719 43.003906 C 10.640625 42.273438 11.25 41.738281 11.558594 41.035156 C 12.335938 41.570312 13.152344 42.039062 14.015625 42.429688 C 13.820312 43.097656 13.761719 43.800781 13.539062 44.464844 Z M 21.898438 46.152344 C 21.5625 46.546875 20.898438 46.566406 20.417969 46.585938 C 19.976562 46.601562 19.539062 46.566406 19.097656 46.546875 C 19.039062 45.617188 19.097656 44.679688 19.125 43.753906 C 19.226562 43.761719 19.339844 43.761719 19.445312 43.773438 C 20.164062 43.808594 20.886719 43.78125 21.589844 43.6875 C 21.75 43.996094 21.851562 44.390625 21.945312 44.691406 C 22.085938 45.167969 22.246094 45.742188 21.898438 46.152344 Z M 30.710938 40.726562 C 30.945312 41.015625 31.085938 41.492188 31.105469 41.859375 C 31.125 42.253906 30.804688 42.589844 30.554688 42.84375 C 30.140625 43.257812 29.15625 44.671875 28.480469 44.089844 C 27.890625 43.585938 27.5625 42.542969 27.402344 41.8125 C 27.382812 41.71875 27.335938 41.644531 27.289062 41.585938 C 28.132812 41.042969 28.921875 40.40625 29.644531 39.695312 C 30 40.03125 30.394531 40.332031 30.710938 40.726562 Z M 30.964844 36.394531 C 30.589844 37.023438 30.160156 37.613281 29.671875 38.164062 C 29.289062 37.996094 28.742188 38.304688 28.960938 38.773438 C 28.976562 38.8125 28.988281 38.839844 29.007812 38.867188 C 28.117188 39.757812 27.101562 40.519531 26.023438 41.148438 C 24.777344 41.867188 23.4375 42.335938 22.050781 42.570312 C 21.796875 42.300781 21.46875 42.421875 21.320312 42.675781 C 19.734375 42.84375 18.121094 42.703125 16.554688 42.300781 C 13.367188 41.464844 10.613281 39.394531 8.550781 36.871094 C 7.621094 34.613281 7.023438 32.183594 7.292969 29.726562 C 7.574219 27.214844 8.8125 24.964844 10.492188 23.109375 C 12.046875 21.382812 14.136719 20.195312 16.433594 19.835938 C 18.703125 19.480469 21.019531 19.960938 23.101562 20.898438 C 25.132812 21.804688 27.066406 23.054688 28.714844 24.554688 C 30.347656 26.035156 31.707031 27.863281 32.257812 30.019531 C 32.839844 32.25 32.109375 34.472656 30.964844 36.394531 Z M 34.988281 34.855469 C 34.78125 35.335938 34.40625 35.738281 33.871094 35.8125 C 33.402344 35.878906 32.839844 35.71875 32.765625 35.183594 C 32.765625 35.164062 32.757812 35.148438 32.757812 35.117188 C 33.101562 34.273438 33.335938 33.402344 33.441406 32.503906 C 33.824219 32.492188 34.667969 32.304688 34.949219 32.644531 C 35.417969 33.214844 35.257812 34.257812 34.988281 34.855469 Z M 34.988281 34.855469 "/>
<path style=" stroke:none;fill-rule:nonzero;fill:rgb(0.392157%,0.392157%,0.392157%);fill-opacity:1;" d="M 25.941406 25.996094 C 24.347656 24.402344 22.285156 23.410156 20.035156 23.210938 C 17.804688 23.015625 15.429688 23.523438 13.621094 24.898438 C 11.757812 26.316406 11.148438 28.574219 11.035156 30.816406 C 10.976562 31.855469 11.007812 32.90625 11.007812 33.945312 C 11.007812 34.050781 11.035156 34.132812 11.070312 34.199219 C 11.390625 35.90625 12.722656 37.199219 14.203125 38.054688 C 15.84375 39 17.804688 39.476562 19.6875 39.28125 C 23.726562 38.859375 28.433594 36.589844 28.695312 32.023438 C 28.820312 29.71875 27.496094 27.554688 25.941406 25.996094 Z M 27.648438 32.222656 C 27.328125 36.101562 22.941406 37.867188 19.59375 38.242188 C 17.945312 38.429688 16.3125 37.996094 14.859375 37.226562 C 13.453125 36.488281 12.121094 35.25 12.027344 33.570312 L 12.027344 33.5625 C 12.007812 31.460938 11.886719 29.222656 12.882812 27.320312 C 13.960938 25.246094 16.398438 24.355469 18.601562 24.214844 C 20.886719 24.074219 23.007812 24.824219 24.742188 26.304688 C 26.429688 27.730469 27.84375 29.925781 27.648438 32.222656 Z M 27.648438 32.222656 "/>
<path style=" stroke:none;fill-rule:nonzero;fill:rgb(0.392157%,0.392157%,0.392157%);fill-opacity:1;" d="M 21.328125 30.554688 C 20.832031 27.824219 16.460938 28.359375 16.285156 30.945312 C 16.011719 32.492188 17.539062 33.515625 18.9375 33.554688 C 19.640625 33.570312 20.335938 33.335938 20.8125 32.804688 C 21.308594 32.242188 21.460938 31.273438 21.328125 30.554688 Z M 20.101562 32.035156 C 19.894531 32.410156 19.40625 32.511719 19.023438 32.523438 C 18.308594 32.550781 17.289062 32.089844 17.277344 31.292969 C 17.296875 31.238281 17.304688 31.171875 17.304688 31.105469 C 17.25 29.605469 19.847656 29.195312 20.296875 30.609375 C 20.429688 31.050781 20.316406 31.640625 20.101562 32.035156 Z M 43.847656 10.761719 C 43.820312 10.460938 43.585938 10.292969 43.292969 10.285156 C 42.722656 10.273438 42.160156 10.144531 41.605469 10.011719 C 41.484375 9.984375 41.382812 9.992188 41.296875 10.03125 C 41.15625 9.570312 40.949219 9.121094 40.667969 8.699219 C 40.660156 8.679688 40.640625 8.664062 40.632812 8.644531 C 41.175781 8.324219 41.445312 7.601562 41.558594 7.023438 C 41.699219 6.308594 41.492188 5.699219 40.902344 5.296875 C 40.378906 4.941406 39.710938 4.527344 39.054688 4.5 C 38.183594 4.472656 37.789062 5.296875 37.386719 5.925781 C 37.3125 6.046875 37.304688 6.160156 37.339844 6.273438 C 36.945312 6.148438 36.535156 6.066406 36.121094 6.019531 C 36.101562 5.972656 36.074219 5.914062 36.027344 5.867188 C 35.605469 5.382812 35.820312 4.59375 35.382812 4.085938 C 34.941406 3.570312 34.171875 3.609375 33.5625 3.730469 C 32.960938 3.851562 32.136719 4.210938 31.976562 4.867188 C 31.820312 5.511719 32.230469 6.132812 32.539062 6.683594 C 32.195312 6.882812 31.867188 7.105469 31.566406 7.359375 C 31.527344 7.257812 31.453125 7.164062 31.332031 7.097656 C 30.664062 6.742188 30.179688 6.046875 29.398438 5.914062 C 28.648438 5.792969 27.882812 6.308594 27.507812 6.917969 C 27.140625 7.527344 27.28125 8.351562 27.742188 8.859375 C 27.992188 9.132812 28.386719 9.273438 28.734375 9.402344 C 29.035156 9.523438 29.457031 9.628906 29.652344 9.898438 C 29.570312 10.085938 29.484375 10.273438 29.417969 10.472656 C 29.289062 10.425781 29.136719 10.425781 28.988281 10.507812 C 28.03125 11.035156 26.53125 10.574219 26.054688 11.839844 C 25.660156 12.882812 26.511719 13.902344 26.652344 14.90625 C 26.691406 15.195312 26.914062 15.394531 27.207031 15.382812 C 27.769531 15.367188 28.332031 15.148438 28.847656 14.925781 C 29.277344 14.738281 29.757812 14.523438 30.019531 14.117188 C 30.019531 14.109375 30.027344 14.109375 30.027344 14.101562 C 30.46875 14.859375 31.085938 15.496094 31.808594 15.984375 C 31.492188 16.648438 31.03125 17.25 30.648438 17.878906 C 30.515625 18.101562 30.628906 18.476562 30.882812 18.570312 C 31.949219 18.964844 33.066406 19.257812 34.117188 19.695312 C 34.386719 19.808594 34.660156 19.726562 34.808594 19.460938 C 35.222656 18.722656 35.257812 17.90625 35.417969 17.089844 C 35.859375 17.089844 36.308594 17.054688 36.757812 16.96875 C 36.964844 16.929688 37.164062 16.875 37.359375 16.820312 C 37.367188 16.921875 37.40625 17.007812 37.460938 17.0625 C 37.472656 17.175781 37.480469 17.277344 37.492188 17.390625 C 37.507812 17.746094 37.660156 18.179688 37.773438 18.523438 C 38.042969 19.367188 38.980469 19.453125 39.703125 19.179688 C 40.105469 19.023438 40.472656 18.769531 40.808594 18.496094 C 41.101562 18.273438 41.632812 17.925781 41.617188 17.511719 C 41.570312 16.507812 40.835938 15.769531 40.265625 15.007812 C 40.246094 14.992188 40.226562 14.960938 40.210938 14.953125 C 40.386719 14.746094 40.546875 14.53125 40.695312 14.296875 C 40.867188 14.558594 41.230469 14.691406 41.476562 14.390625 C 41.492188 14.390625 41.523438 14.382812 41.550781 14.382812 C 41.699219 14.363281 41.859375 14.371094 42.007812 14.371094 C 42.28125 14.382812 42.554688 14.398438 42.835938 14.398438 C 43.058594 14.398438 43.265625 14.195312 43.304688 13.988281 C 43.453125 12.910156 43.96875 11.886719 43.847656 10.761719 Z M 32.992188 5.117188 C 33.027344 5.015625 33.328125 4.902344 33.421875 4.855469 C 33.628906 4.753906 33.863281 4.726562 34.085938 4.707031 C 34.527344 4.667969 34.632812 4.6875 34.726562 5.128906 C 34.78125 5.417969 34.828125 5.726562 34.929688 6.007812 C 34.445312 6.046875 33.964844 6.132812 33.496094 6.289062 C 33.347656 6.027344 32.867188 5.398438 32.992188 5.117188 Z M 29.089844 13.667969 C 29.175781 13.539062 28.902344 13.761719 28.855469 13.789062 C 28.679688 13.894531 28.492188 13.976562 28.292969 14.054688 C 28.058594 14.15625 27.804688 14.25 27.554688 14.304688 C 27.347656 13.648438 27 13.011719 26.980469 12.335938 C 26.972656 11.867188 27.742188 11.851562 28.039062 11.8125 C 28.445312 11.757812 28.820312 11.691406 29.195312 11.539062 C 29.164062 11.960938 29.203125 12.382812 29.351562 12.796875 C 29.398438 12.917969 29.464844 13.003906 29.558594 13.058594 C 29.605469 13.179688 29.652344 13.3125 29.699219 13.425781 C 29.484375 13.386719 29.242188 13.445312 29.089844 13.667969 Z M 29.183594 8.492188 C 28.753906 8.324219 28.246094 8.175781 28.339844 7.613281 C 28.40625 7.226562 28.96875 6.824219 29.34375 6.976562 C 29.914062 7.199219 30.328125 7.742188 30.871094 8.035156 C 30.871094 8.035156 30.882812 8.035156 30.882812 8.042969 C 30.675781 8.269531 30.488281 8.511719 30.320312 8.765625 C 30.273438 8.839844 30.214844 8.914062 30.167969 8.980469 C 29.878906 8.757812 29.523438 8.625 29.183594 8.492188 Z M 34.058594 18.582031 C 33.335938 18.308594 32.605469 18.09375 31.875 17.851562 C 32.164062 17.410156 32.464844 16.976562 32.699219 16.5 C 33.226562 16.742188 33.789062 16.914062 34.367188 17.007812 C 34.273438 17.539062 34.238281 18.085938 34.058594 18.582031 Z M 40.539062 17.363281 C 40.070312 17.792969 38.90625 18.742188 38.699219 18.101562 C 38.578125 17.738281 38.511719 17.351562 38.464844 16.976562 C 38.445312 16.808594 38.429688 16.59375 38.363281 16.40625 C 38.757812 16.210938 39.121094 15.964844 39.449219 15.683594 C 39.863281 16.191406 40.40625 16.726562 40.539062 17.363281 Z M 40.5 11.785156 C 40.351562 13.585938 39.019531 15.101562 37.378906 15.730469 C 34.5 16.828125 30.84375 15.214844 30.355469 12.027344 C 30.335938 11.90625 30.289062 11.8125 30.214844 11.738281 C 30.234375 11.082031 30.523438 10.414062 30.835938 9.851562 C 31.292969 9.027344 31.949219 8.25 32.757812 7.742188 C 34.332031 6.742188 36.335938 6.804688 37.960938 7.640625 C 39.476562 8.429688 40.648438 10.023438 40.5 11.785156 Z M 40.566406 6.730469 C 40.539062 7.023438 40.378906 7.6875 40.070312 7.789062 C 40.03125 7.808594 39.992188 7.820312 39.957031 7.835938 C 39.476562 7.359375 38.914062 6.957031 38.296875 6.664062 C 38.605469 6.589844 38.691406 6.234375 38.570312 5.960938 C 38.617188 5.886719 38.664062 5.8125 38.71875 5.738281 C 38.773438 5.664062 38.839844 5.597656 38.925781 5.558594 C 38.960938 5.539062 39.039062 5.539062 39.085938 5.539062 C 39.460938 5.605469 39.84375 5.859375 40.164062 6.046875 C 40.492188 6.242188 40.613281 6.328125 40.566406 6.730469 Z M 42.355469 13.359375 C 41.972656 13.332031 41.511719 13.285156 41.148438 13.398438 C 41.457031 12.636719 41.570312 11.839844 41.492188 11.054688 C 41.933594 11.15625 42.375 11.242188 42.824219 11.289062 C 42.796875 11.992188 42.523438 12.675781 42.355469 13.359375 Z M 42.355469 13.359375 "/>
<path style=" stroke:none;fill-rule:nonzero;fill:rgb(0.392157%,0.392157%,0.392157%);fill-opacity:1;" d="M 37.847656 8.8125 C 36.777344 8.054688 35.351562 7.875 34.097656 8.203125 C 32.820312 8.550781 32.015625 9.601562 31.988281 10.867188 C 31.894531 10.960938 31.835938 11.089844 31.855469 11.257812 C 32.210938 14.671875 37.144531 15.179688 38.664062 12.328125 C 39.308594 11.101562 38.972656 9.617188 37.847656 8.8125 Z M 36.121094 13.078125 C 34.835938 13.445312 33.308594 12.890625 32.933594 11.53125 C 33 11.445312 33.039062 11.335938 33.019531 11.195312 C 32.90625 9.945312 33.769531 9.226562 34.949219 9.101562 C 35.925781 9 37.332031 9.308594 37.808594 10.285156 C 38.429688 11.53125 37.273438 12.75 36.121094 13.078125 Z M 36.121094 13.078125 "/>
</g>
</svg>
