<?xml version="1.0" encoding="UTF-8"?>
<svg xmlns="http://www.w3.org/2000/svg" xmlns:xlink="http://www.w3.org/1999/xlink" width="32pt" height="32pt" viewBox="0 0 32 32" version="1.1">
<g id="surface2127564">
<path style=" stroke:none;fill-rule:nonzero;fill:rgb(22.745098%,68.627453%,66.274512%);fill-opacity:1;" d="M 13.140625 2 L 12.65625 4.578125 C 10.796875 5.125 9.140625 6.09375 7.78125 7.390625 L 5.304688 6.523438 L 2.445312 11.476562 L 4.421875 13.171875 C 4.195312 14.085938 4 15.015625 4 16 C 4 16.984375 4.195312 17.914062 4.421875 18.828125 L 2.445312 20.523438 L 5.304688 25.476562 L 7.773438 24.601562 C 9.140625 25.914062 10.796875 26.875 12.65625 27.429688 L 13.140625 30 L 18.859375 30 L 19.34375 27.429688 C 21.203125 26.875 22.859375 25.90625 24.21875 24.601562 L 26.6875 25.476562 L 29.554688 20.523438 L 27.570312 18.828125 C 27.796875 17.914062 28 16.984375 28 16 C 28 15.015625 27.804688 14.085938 27.578125 13.171875 L 29.554688 11.476562 L 26.695312 6.523438 L 24.226562 7.390625 C 22.859375 6.085938 21.203125 5.125 19.34375 4.578125 L 18.859375 2 Z M 14.796875 4 L 17.203125 4 L 17.59375 6.109375 L 18.234375 6.265625 C 20.21875 6.71875 21.96875 7.757812 23.3125 9.195312 L 23.757812 9.671875 L 25.789062 8.960938 L 26.992188 11.039062 L 25.367188 12.4375 L 25.5625 13.0625 C 25.84375 13.984375 26 14.976562 26 16 C 26 17.023438 25.84375 18.007812 25.5625 18.9375 L 25.367188 19.5625 L 26.992188 20.960938 L 25.789062 23.039062 L 23.757812 22.320312 L 23.3125 22.804688 C 21.96875 24.242188 20.21875 25.28125 18.234375 25.742188 L 17.59375 25.882812 L 17.203125 28 L 14.796875 28 L 14.40625 25.882812 L 13.765625 25.742188 C 11.78125 25.28125 10.03125 24.242188 8.6875 22.804688 L 8.234375 22.320312 L 6.203125 23.039062 L 5.007812 20.960938 L 6.632812 19.5625 L 6.4375 18.9375 C 6.15625 18.015625 6 17.023438 6 16 C 6 14.976562 6.15625 13.984375 6.4375 13.0625 L 6.632812 12.4375 L 5.007812 11.039062 L 6.203125 8.960938 L 8.242188 9.671875 L 8.6875 9.195312 C 10.03125 7.757812 11.78125 6.71875 13.765625 6.265625 L 14.40625 6.109375 Z M 16 10 C 12.695312 10 10 12.695312 10 16 C 10 19.304688 12.695312 22 16 22 C 19.304688 22 22 19.304688 22 16 C 22 12.695312 19.304688 10 16 10 Z M 16 12 C 18.21875 12 20 13.78125 20 16 C 20 18.21875 18.21875 20 16 20 C 13.78125 20 12 18.21875 12 16 C 12 13.78125 13.78125 12 16 12 Z M 16 12 "/>
</g>
</svg>
