<?xml version="1.0" encoding="iso-8859-1"?>
<!-- Generator: Adobe Illustrator 19.0.0, SVG Export Plug-In . SVG Version: 6.00 Build 0)  -->
<svg version="1.1" id="Layer_1" xmlns="http://www.w3.org/2000/svg" xmlns:xlink="http://www.w3.org/1999/xlink" x="0px" y="0px"
	 viewBox="0 0 512 512" style="enable-background:new 0 0 512 512;" xml:space="preserve">
<g>
	<g>
		<path d="M485.097,80.1H291.945c-3.864,0-7.611-1.394-10.544-3.919l-35.433-30.568c-6.843-5.893-15.578-9.138-24.595-9.138H94.423
			c-14.834,0-26.903,12.069-26.903,26.903v35.957H26.903C12.069,99.334,0,111.403,0,126.237v322.386
			c0,14.834,12.069,26.903,26.903,26.903h390.673c14.834,0,26.903-12.069,26.903-26.903v-35.949h40.618
			c14.834,0,26.903-12.069,26.903-26.903V107.003C512,92.168,499.931,80.1,485.097,80.1z M422.957,448.623
			c0,2.967-2.414,5.381-5.381,5.381H26.903c-2.967,0-5.381-2.414-5.381-5.381V227.428h401.434V448.623z M422.957,205.906H21.522
			v-79.668c0-2.967,2.414-5.381,5.381-5.381h126.943c3.869,0,7.612,1.391,10.542,3.918l35.434,30.56
			c6.836,5.895,15.571,9.142,24.598,9.142h193.156c2.967,0,5.381,2.414,5.381,5.381V205.906z M490.478,385.771
			c0,2.967-2.414,5.381-5.381,5.381h-40.618V169.857c0-14.834-12.069-26.903-26.903-26.903H224.42
			c-3.869,0-7.614-1.391-10.542-3.918l-35.434-30.56c-6.836-5.895-15.571-9.142-24.598-9.142H89.042V63.377
			c0-2.967,2.414-5.381,5.381-5.381h126.95c3.864,0,7.611,1.394,10.544,3.919l35.433,30.568c6.843,5.893,15.578,9.138,24.595,9.138
			h193.153c2.967,0,5.381,2.414,5.381,5.381V385.771z"/>
	</g>
</g>
<g>
	<g>
		<path d="M268.417,329.955h-35.416v-35.416c0-5.943-4.818-10.761-10.761-10.761c-5.943,0-10.761,4.818-10.761,10.761v35.416
			h-35.416c-5.943,0-10.761,4.818-10.761,10.761s4.818,10.761,10.761,10.761h35.416v35.416c0,5.943,4.818,10.761,10.761,10.761
			c5.943,0,10.761-4.818,10.761-10.761v-35.416h35.416c5.943,0,10.761-4.818,10.761-10.761
			C279.179,334.772,274.361,329.955,268.417,329.955z"/>
	</g>
</g>
<g>
</g>
<g>
</g>
<g>
</g>
<g>
</g>
<g>
</g>
<g>
</g>
<g>
</g>
<g>
</g>
<g>
</g>
<g>
</g>
<g>
</g>
<g>
</g>
<g>
</g>
<g>
</g>
<g>
</g>
</svg>
