<?xml version="1.0" encoding="UTF-8"?>
<svg xmlns="http://www.w3.org/2000/svg" xmlns:xlink="http://www.w3.org/1999/xlink" width="48pt" height="48pt" viewBox="0 0 48 48" version="1.1">
<g id="surface2012835">
<path style=" stroke:none;fill-rule:nonzero;fill:rgb(22.745098%,68.627453%,66.274512%);fill-opacity:1;" d="M 47.234375 20.898438 C 47.074219 19.679688 47.265625 18.40625 46.1875 17.8125 C 45.578125 17.476562 44.597656 17.40625 43.6875 17.433594 C 43.589844 15.980469 43.492188 14.523438 43.394531 13.066406 C 43.363281 12.570312 43.324219 12.058594 43.085938 11.621094 C 42.691406 10.90625 41.867188 10.515625 41.066406 10.351562 C 34.957031 9.082031 29.59375 10.9375 23.46875 10.65625 C 22.082031 10.59375 20.535156 10.070312 19.746094 8.929688 C 19.484375 8.546875 19.332031 8.101562 19.046875 7.738281 C 18.378906 6.886719 17.1875 6.6875 16.109375 6.605469 C 13.347656 6.386719 10.1875 6.699219 7.6875 6.824219 C 6.722656 6.875 5.730469 7.492188 5.257812 8.339844 C 4.785156 9.183594 4.777344 10.433594 4.78125 11.402344 C 4.808594 18.839844 4.832031 26.277344 4.859375 33.714844 C 4.863281 35.113281 4.871094 36.527344 5.226562 37.875 C 5.582031 39.226562 6.3125 41.023438 7.5 41.753906 C 8.851562 42.585938 10.539062 42.570312 12.125 42.53125 C 20.6875 42.3125 29.269531 41.597656 37.835938 41.378906 C 39.351562 41.339844 40.949219 41.273438 42.234375 40.464844 C 43.515625 39.65625 44.28125 38.199219 44.582031 36.710938 C 44.589844 36.679688 44.589844 36.648438 44.597656 36.617188 C 45.53125 32.976562 45.589844 31.167969 46.535156 27.195312 C 47.027344 25.128906 47.503906 23.007812 47.234375 20.898438 Z M 47.234375 20.898438 "/>
<path style=" stroke:none;fill-rule:nonzero;fill:rgb(0%,0%,0%);fill-opacity:1;" d="M 47.726562 20.621094 C 47.707031 19.425781 47.679688 18.066406 46.429688 17.375 C 45.824219 17.042969 44.964844 16.9375 44.152344 16.929688 L 43.890625 13.03125 C 43.859375 12.511719 43.820312 11.921875 43.519531 11.378906 C 43.109375 10.628906 42.28125 10.089844 41.171875 9.859375 C 37.480469 9.101562 34.011719 9.449219 30.648438 9.789062 C 28.351562 10.03125 25.960938 10.269531 23.488281 10.160156 C 22.351562 10.109375 20.878906 9.679688 20.160156 8.640625 C 20.050781 8.488281 19.96875 8.320312 19.878906 8.160156 C 19.75 7.910156 19.621094 7.671875 19.441406 7.429688 C 18.660156 6.429688 17.339844 6.199219 16.148438 6.109375 C 13.980469 5.929688 11.558594 6.089844 9.441406 6.21875 C 8.820312 6.261719 8.230469 6.300781 7.660156 6.328125 C 6.519531 6.378906 5.378906 7.089844 4.820312 8.089844 C 4.269531 9.070312 4.28125 10.480469 4.28125 11.398438 L 4.359375 33.71875 C 4.371094 35.121094 4.371094 36.578125 4.75 38 C 4.851562 38.390625 5.007812 38.882812 5.210938 39.394531 C 5.371094 39.964844 5.613281 40.488281 5.988281 40.910156 C 5.992188 40.910156 5.992188 40.914062 5.992188 40.914062 C 6.335938 41.421875 6.742188 41.875 7.238281 42.179688 C 8.449219 42.921875 9.867188 43.050781 11.160156 43.050781 C 11.5 43.050781 11.828125 43.039062 12.140625 43.03125 C 16.429688 42.921875 20.789062 42.679688 25.007812 42.449219 C 29.21875 42.21875 33.570312 41.988281 37.847656 41.878906 C 39.277344 41.839844 41.058594 41.789062 42.5 40.890625 C 43.527344 40.242188 44.3125 39.183594 44.773438 37.855469 C 44.78125 37.84375 44.789062 37.832031 44.796875 37.816406 C 44.804688 37.785156 44.808594 37.757812 44.816406 37.726562 C 44.914062 37.433594 45.003906 37.128906 45.066406 36.808594 C 45.074219 36.773438 45.078125 36.742188 45.085938 36.707031 C 45.542969 34.886719 45.800781 33.476562 46.066406 32 C 46.316406 30.617188 46.574219 29.1875 47.019531 27.308594 C 47.539062 25.121094 47.78125 22.960938 47.730469 20.886719 Z M 5.699219 8.578125 C 6.089844 7.878906 6.921875 7.371094 7.710938 7.328125 C 8.28125 7.300781 8.878906 7.261719 9.5 7.21875 C 10.941406 7.128906 12.5 7.03125 14.019531 7.03125 C 14.71875 7.03125 15.410156 7.050781 16.070312 7.101562 C 17.039062 7.179688 18.109375 7.351562 18.648438 8.039062 C 18.78125 8.210938 18.878906 8.410156 18.988281 8.621094 C 19.101562 8.820312 19.210938 9.019531 19.339844 9.210938 C 20.121094 10.351562 21.660156 11.078125 23.449219 11.160156 C 25.988281 11.28125 28.410156 11.03125 30.761719 10.789062 C 34.191406 10.441406 37.429688 10.109375 40.96875 10.839844 C 41.441406 10.941406 42.28125 11.199219 42.648438 11.871094 C 42.828125 12.210938 42.871094 12.660156 42.898438 13.101562 L 43.164062 16.960938 C 42.808594 16.988281 42.5 17.023438 42.277344 17.054688 C 41.105469 17.210938 32.726562 18.007812 31.449219 17.917969 C 29.363281 17.785156 27.304688 17.777344 25.316406 17.789062 C 23.355469 17.792969 21.304688 17.789062 19.25 17.660156 C 18.152344 17.59375 17.019531 17.519531 15.925781 17.351562 C 15.601562 17.304688 15.277344 17.246094 14.953125 17.1875 C 14.183594 17.046875 13.390625 16.90625 12.585938 16.878906 C 11.605469 16.847656 10.214844 16.980469 9.117188 17.832031 C 7.65625 18.972656 7.265625 20.894531 6.992188 22.761719 L 5.363281 33.886719 C 5.363281 33.828125 5.359375 33.769531 5.359375 33.710938 L 5.28125 11.398438 C 5.28125 10.578125 5.269531 9.328125 5.699219 8.578125 Z M 46.050781 27.078125 C 45.59375 28.984375 45.335938 30.425781 45.082031 31.824219 C 44.859375 33.066406 44.640625 34.265625 44.304688 35.699219 L 44.199219 35.898438 C 44.183594 36.105469 44.144531 36.308594 44.105469 36.507812 C 44.070312 36.648438 44.035156 36.789062 43.996094 36.9375 C 43.648438 38.3125 42.933594 39.4375 41.96875 40.039062 C 40.761719 40.800781 39.199219 40.839844 37.820312 40.878906 C 33.53125 40.988281 29.171875 41.230469 24.949219 41.460938 C 20.738281 41.679688 16.390625 41.921875 12.109375 42.03125 C 10.738281 42.070312 9.03125 42.109375 7.761719 41.328125 C 7.027344 40.882812 6.507812 39.945312 6.160156 39.097656 C 5.863281 38.003906 5.96875 36.648438 6.09375 35.789062 L 7.980469 22.90625 C 8.234375 21.171875 8.558594 19.535156 9.734375 18.621094 C 10.589844 17.953125 11.730469 17.847656 12.546875 17.878906 C 13.285156 17.902344 14.007812 18.03125 14.773438 18.171875 C 15.105469 18.230469 15.441406 18.289062 15.773438 18.34375 C 16.910156 18.515625 18.066406 18.589844 19.1875 18.65625 C 21.269531 18.789062 23.300781 18.78125 25.316406 18.789062 C 27.292969 18.78125 29.335938 18.785156 31.386719 18.914062 C 32.757812 19.015625 41.050781 18.226562 42.410156 18.042969 C 43.636719 17.878906 45.207031 17.84375 45.945312 18.25 C 46.640625 18.632812 46.703125 19.410156 46.726562 20.640625 L 46.730469 20.910156 C 46.777344 22.898438 46.550781 24.972656 46.050781 27.078125 Z M 46.050781 27.078125 "/>
</g>
</svg>
