<?xml version="1.0" encoding="UTF-8"?>
<svg xmlns="http://www.w3.org/2000/svg" xmlns:xlink="http://www.w3.org/1999/xlink" width="32pt" height="32pt" viewBox="0 0 32 32" version="1.1">
<g id="surface2127033">
<path style=" stroke:none;fill-rule:nonzero;fill:rgb(22.745098%,68.627453%,66.274512%);fill-opacity:1;" d="M 9 4 C 7.351562 4 6 5.351562 6 7 L 6 25 C 6 26.648438 7.351562 28 9 28 L 23 28 C 24.648438 28 26 26.648438 26 25 L 26 10.585938 L 19.414062 4 Z M 9 6 L 18 6 L 18 12 L 24 12 L 24 25 C 24 25.5625 23.5625 26 23 26 L 9 26 C 8.4375 26 8 25.5625 8 25 L 8 7 C 8 6.4375 8.4375 6 9 6 Z M 20 7.414062 L 22.585938 10 L 20 10 Z M 20 7.414062 "/>
</g>
</svg>
