<?xml version="1.0" encoding="UTF-8"?>
<svg xmlns="http://www.w3.org/2000/svg" xmlns:xlink="http://www.w3.org/1999/xlink" width="32pt" height="32pt" viewBox="0 0 32 32" version="1.1">
<g id="surface2096011">
<path style=" stroke:none;fill-rule:nonzero;fill:rgb(100%,100%,100%);fill-opacity:1;" d="M 5 4 C 3.351562 4 2 5.351562 2 7 L 2 25 C 2 26.648438 3.351562 28 5 28 L 27 28 C 28.648438 28 30 26.648438 30 25 L 30 11 C 30 9.351562 28.648438 8 27 8 L 13.59375 8 L 12.289062 5.578125 C 11.765625 4.601562 10.75 4 9.648438 4 Z M 5 6 L 9.648438 6 C 10.015625 6 10.351562 6.203125 10.53125 6.523438 L 11.328125 8 L 4 8 L 4 7 C 4 6.4375 4.4375 6 5 6 Z M 4 10 L 27 10 C 27.5625 10 28 10.4375 28 11 L 28 25 C 28 25.5625 27.5625 26 27 26 L 5 26 C 4.4375 26 4 25.5625 4 25 Z M 4 10 "/>
</g>
</svg>
