<?xml version="1.0" encoding="UTF-8"?>
<svg xmlns="http://www.w3.org/2000/svg" xmlns:xlink="http://www.w3.org/1999/xlink" width="48pt" height="48pt" viewBox="0 0 48 48" version="1.1">
<g id="surface2018386">
<path style=" stroke:none;fill-rule:nonzero;fill:rgb(73.725492%,73.725492%,73.725492%);fill-opacity:1;" d="M 38.644531 3.957031 C 38.644531 3.945312 38.644531 3.945312 38.644531 3.9375 C 38.539062 4.058594 38.417969 4.179688 38.316406 4.304688 C 38.042969 4.601562 37.789062 4.929688 37.507812 5.230469 C 37.023438 5.757812 36.46875 6.207031 35.960938 6.710938 C 35.523438 7.152344 34.941406 7.714844 34.875 8.382812 C 34.808594 9.019531 35.4375 9.675781 35.859375 10.058594 C 35.914062 10.117188 35.972656 10.164062 36.039062 10.21875 C 35.972656 9.957031 35.953125 9.695312 36.007812 9.414062 C 36.226562 8.445312 36.703125 7.492188 37.351562 6.730469 C 37.828125 6.179688 38.578125 5.679688 38.878906 5.007812 C 38.972656 4.789062 38.691406 4.246094 38.644531 3.957031 Z M 38.644531 3.957031 "/>
<path style=" stroke:none;fill-rule:nonzero;fill:rgb(22.745098%,68.627453%,66.274512%);fill-opacity:1;" d="M 43.472656 11.230469 C 43.445312 10.78125 43.40625 10.320312 43.386719 9.851562 C 43.125 10.171875 42.835938 10.472656 42.542969 10.753906 C 41.851562 11.429688 41.117188 12.1875 40.226562 12.589844 C 38.417969 13.386719 36.695312 12.195312 35.371094 11.007812 C 34.78125 10.472656 34.117188 9.796875 33.929688 8.992188 C 33.742188 8.175781 33.992188 7.453125 34.5 6.796875 C 35.035156 6.101562 35.710938 5.558594 36.328125 4.960938 C 36.636719 4.660156 36.910156 4.332031 37.199219 4.003906 C 37.292969 3.890625 37.40625 3.789062 37.507812 3.675781 C 36.261719 3.683594 35.015625 3.582031 33.789062 3.882812 C 32.632812 4.164062 31.480469 4.648438 30.609375 5.464844 C 29.679688 6.320312 29.042969 7.414062 28.78125 8.652344 C 28.460938 10.125 28.585938 11.625 28.59375 13.125 C 28.59375 13.304688 28.519531 13.433594 28.414062 13.527344 C 28.023438 15.5625 27.054688 17.429688 25.734375 19.03125 C 24.132812 20.980469 22.351562 22.808594 20.585938 24.609375 C 19.621094 25.585938 18.5625 26.492188 17.652344 27.523438 C 16.929688 28.332031 16.3125 29.304688 15.394531 29.914062 C 14.390625 30.570312 13.3125 30.476562 12.214844 30.121094 C 11.210938 29.804688 10.292969 29.445312 9.234375 29.511719 C 7.359375 29.632812 5.257812 30.542969 4.386719 32.316406 C 3.84375 33.421875 3.851562 34.789062 3.898438 36 C 3.929688 36.695312 4.03125 37.378906 4.070312 38.082031 C 4.085938 38.457031 4.105469 38.832031 4.144531 39.207031 C 4.941406 38.082031 5.710938 36.929688 6.730469 36 C 7.902344 34.941406 9.496094 34.117188 11.007812 35.0625 C 11.867188 35.605469 12.523438 36.367188 13.152344 37.152344 C 13.773438 37.929688 14.539062 38.664062 15.007812 39.535156 C 16.097656 41.550781 14.371094 43.472656 13.40625 45.1875 C 13.601562 45.179688 13.808594 45.160156 14.007812 45.140625 C 15.648438 44.980469 17.410156 44.632812 18.851562 43.800781 C 19.507812 43.425781 20.175781 42.9375 20.503906 42.226562 C 20.972656 41.222656 20.691406 40.003906 20.335938 39.007812 C 19.921875 37.875 19.265625 36.683594 19.40625 35.4375 C 19.527344 34.398438 20.148438 33.535156 20.839844 32.785156 C 22.761719 30.695312 24.703125 28.621094 26.550781 26.476562 C 27.535156 25.339844 28.5 24.1875 29.457031 23.023438 C 30.242188 22.070312 30.976562 21.046875 31.835938 20.15625 C 32.539062 19.425781 33.347656 18.84375 34.351562 18.648438 C 35.523438 18.414062 36.710938 18.722656 37.894531 18.683594 C 39.140625 18.65625 40.179688 18.214844 41.089844 17.371094 C 41.90625 16.621094 42.554688 15.722656 42.957031 14.679688 C 43.398438 13.566406 43.546875 12.421875 43.472656 11.230469 Z M 33.140625 18 C 33.113281 18.027344 33.085938 18.066406 33.046875 18.09375 C 32.210938 18.703125 31.527344 19.460938 30.824219 20.210938 C 30.148438 20.933594 29.410156 21.601562 28.714844 22.304688 C 27.28125 23.765625 25.988281 25.351562 24.65625 26.898438 C 23.980469 27.683594 23.257812 28.425781 22.613281 29.230469 C 21.945312 30.054688 21.328125 30.910156 20.699219 31.761719 C 20.203125 32.429688 19.695312 33.09375 19.164062 33.730469 C 18.84375 34.105469 18.207031 34.667969 18.167969 35.195312 C 18.140625 35.539062 17.859375 35.644531 17.597656 35.585938 C 17.410156 35.644531 17.183594 35.605469 17.042969 35.390625 C 16.761719 34.976562 16.480469 34.566406 16.179688 34.164062 C 15.9375 33.835938 15.703125 33.429688 15.367188 33.1875 C 15.066406 32.960938 14.738281 32.773438 14.417969 32.597656 C 14.289062 32.523438 14.15625 32.457031 14.015625 32.382812 C 13.949219 32.351562 13.695312 32.277344 13.902344 32.316406 C 13.292969 32.195312 13.425781 31.292969 13.988281 31.292969 C 13.988281 31.292969 13.988281 31.292969 13.996094 31.292969 C 14.445312 31.050781 14.925781 30.882812 15.402344 30.710938 C 15.910156 30.523438 16.292969 30.289062 16.707031 29.945312 C 17.4375 29.316406 18.121094 28.632812 18.871094 28.023438 C 19.386719 27.601562 19.960938 28.460938 19.453125 28.875 C 18.65625 29.523438 17.953125 30.261719 17.164062 30.910156 C 16.773438 31.226562 16.386719 31.460938 15.898438 31.640625 C 15.675781 31.726562 15.449219 31.789062 15.226562 31.875 C 15.488281 32.023438 15.742188 32.183594 15.984375 32.363281 C 16.378906 32.652344 16.660156 33.074219 16.949219 33.46875 C 17.128906 33.710938 17.304688 33.945312 17.476562 34.191406 C 17.679688 33.871094 17.945312 33.582031 18.148438 33.335938 C 18.683594 32.691406 19.210938 32.042969 19.714844 31.378906 C 20.382812 30.476562 21.027344 29.558594 21.730469 28.695312 C 22.414062 27.851562 23.175781 27.054688 23.886719 26.230469 C 25.285156 24.589844 26.652344 22.914062 28.179688 21.394531 C 28.921875 20.664062 29.671875 19.941406 30.382812 19.179688 C 31.003906 18.515625 31.648438 17.859375 32.382812 17.316406 C 32.007812 17.023438 31.507812 16.820312 31.152344 16.59375 C 30.824219 16.386719 30.507812 16.171875 30.242188 15.882812 C 29.960938 15.570312 29.710938 15.179688 29.351562 14.945312 C 28.808594 14.578125 29.257812 13.648438 29.8125 14.015625 C 30.261719 14.316406 30.554688 14.71875 30.929688 15.101562 C 31.199219 15.382812 31.492188 15.589844 31.820312 15.789062 C 32.4375 16.164062 33.289062 16.539062 33.664062 17.195312 C 33.898438 17.605469 33.507812 18.039062 33.140625 18 Z M 33.140625 18 "/>
<path style=" stroke:none;fill-rule:nonzero;fill:rgb(73.725492%,73.725492%,73.725492%);fill-opacity:1;" d="M 10.425781 35.90625 C 9.113281 35.210938 7.867188 36.226562 6.992188 37.171875 C 6.226562 37.996094 5.585938 38.925781 4.941406 39.84375 C 5.109375 39.882812 5.289062 39.929688 5.457031 39.976562 C 5.550781 39.992188 5.757812 40.078125 5.851562 40.039062 C 6.28125 39.851562 6.636719 39.421875 6.945312 39.085938 C 7.304688 38.699219 7.632812 38.304688 8.015625 37.949219 C 8.867188 37.144531 9.917969 36.507812 11.148438 36.816406 C 11.335938 36.863281 11.523438 36.929688 11.699219 36.992188 C 11.324219 36.5625 10.914062 36.160156 10.425781 35.90625 Z M 44.429688 9.964844 C 44.4375 10.152344 44.445312 10.351562 44.464844 10.539062 C 44.550781 11.765625 44.570312 12.929688 44.230469 14.117188 C 43.929688 15.1875 43.472656 16.199219 42.789062 17.070312 C 42.085938 17.960938 41.164062 18.816406 40.117188 19.273438 C 39.039062 19.742188 37.882812 19.742188 36.730469 19.667969 C 35.625 19.59375 34.472656 19.433594 33.496094 20.082031 C 32.644531 20.652344 32.015625 21.523438 31.367188 22.3125 C 29.484375 24.648438 27.542969 26.945312 25.546875 29.183594 C 24.5625 30.289062 23.550781 31.367188 22.554688 32.457031 C 21.863281 33.214844 20.960938 33.964844 20.585938 34.949219 C 20.296875 35.710938 20.484375 36.476562 20.765625 37.226562 C 21.234375 35.710938 22.179688 34.386719 23.210938 33.179688 C 24.601562 31.554688 25.976562 29.925781 27.382812 28.3125 C 28.359375 27.195312 29.351562 26.082031 30.328125 24.957031 C 31.171875 23.992188 31.929688 22.902344 32.878906 22.023438 C 33.851562 21.121094 34.921875 20.652344 36.242188 20.539062 C 37.5 20.429688 38.8125 20.550781 40.039062 20.195312 C 42.074219 19.601562 43.566406 18.054688 44.242188 16.058594 C 44.925781 14.023438 44.851562 11.992188 44.429688 9.964844 Z M 44.429688 9.964844 "/>
<path style=" stroke:none;fill-rule:nonzero;fill:rgb(0%,0%,0%);fill-opacity:1;" d="M 44.867188 7.554688 C 44.8125 7.367188 44.679688 7.265625 44.539062 7.226562 C 44.316406 6.957031 43.734375 6.976562 43.601562 7.445312 C 43.574219 7.546875 43.546875 7.648438 43.527344 7.753906 C 43.460938 7.800781 43.40625 7.867188 43.367188 7.96875 C 43.050781 8.746094 42.476562 9.375 41.886719 9.976562 C 41.296875 10.566406 40.648438 11.25 39.890625 11.625 C 39.1875 11.972656 38.476562 11.851562 37.800781 11.523438 C 37.632812 11.175781 37.433594 10.835938 37.238281 10.5 C 36.984375 10.050781 36.984375 9.648438 37.125 9.160156 C 37.367188 8.316406 37.949219 7.554688 38.558594 6.9375 C 39.039062 6.449219 39.742188 5.886719 39.898438 5.183594 C 39.992188 4.789062 39.804688 4.367188 39.703125 3.992188 C 39.636719 3.769531 39.648438 3.535156 39.648438 3.300781 L 39.648438 3.214844 C 39.648438 2.804688 39.253906 2.679688 38.953125 2.804688 C 38.820312 2.644531 38.605469 2.558594 38.410156 2.644531 C 38.363281 2.632812 38.304688 2.625 38.25 2.632812 C 37.398438 2.691406 36.542969 2.632812 35.679688 2.644531 C 34.921875 2.652344 34.179688 2.757812 33.441406 2.925781 C 32.148438 3.226562 30.910156 3.835938 29.914062 4.726562 C 28.875 5.652344 28.21875 6.824219 27.835938 8.15625 C 27.414062 9.617188 27.515625 11.175781 27.542969 12.683594 C 27.507812 12.742188 27.476562 12.816406 27.46875 12.898438 C 27.085938 15.441406 25.761719 17.570312 24.027344 19.40625 C 21.992188 21.554688 20.035156 23.757812 17.914062 25.820312 C 17.503906 26.222656 17.070312 26.605469 16.695312 27.046875 C 16.3125 27.488281 15.957031 27.945312 15.5625 28.378906 C 15.234375 28.742188 14.859375 29.089844 14.398438 29.289062 C 13.847656 29.511719 13.226562 29.351562 12.675781 29.203125 C 12.132812 29.054688 11.605469 28.847656 11.0625 28.679688 C 10.585938 28.539062 10.085938 28.5 9.589844 28.480469 C 8.617188 28.453125 7.613281 28.679688 6.710938 29.035156 C 5.023438 29.699219 3.46875 31.085938 3.066406 32.914062 C 2.804688 34.097656 2.8125 35.34375 2.878906 36.542969 C 2.914062 37.191406 3.007812 37.835938 3.046875 38.492188 C 3.085938 39.148438 3.148438 39.796875 3.300781 40.445312 C 3.347656 40.632812 3.460938 40.734375 3.589844 40.773438 C 3.769531 41.007812 4.125 41.101562 4.351562 40.800781 C 4.40625 40.800781 4.472656 40.808594 4.527344 40.820312 C 4.734375 40.847656 4.941406 40.914062 5.148438 40.960938 C 5.484375 41.042969 5.839844 41.128906 6.179688 41.007812 C 6.964844 40.734375 7.59375 39.882812 8.136719 39.289062 C 8.738281 38.632812 9.414062 37.855469 10.351562 37.773438 C 11.4375 37.667969 12.65625 38.625 13.285156 39.429688 C 13.433594 39.617188 13.640625 39.664062 13.828125 39.617188 C 13.867188 39.664062 13.902344 39.710938 13.929688 39.769531 C 14.492188 40.585938 14.335938 41.390625 13.921875 42.226562 C 13.453125 43.191406 12.796875 44.054688 12.308594 45.007812 C 12.09375 45.421875 12.476562 45.769531 12.835938 45.742188 C 12.863281 45.992188 13.039062 46.238281 13.367188 46.21875 C 14.980469 46.144531 16.632812 45.824219 18.140625 45.253906 C 19.6875 44.664062 21.253906 43.660156 21.664062 41.953125 C 21.917969 40.894531 21.664062 39.75 21.308594 38.726562 C 21.414062 38.664062 21.496094 38.550781 21.523438 38.390625 C 21.898438 35.953125 23.710938 34.164062 25.257812 32.371094 C 27.195312 30.132812 29.128906 27.882812 31.070312 25.648438 C 31.914062 24.675781 32.691406 23.617188 33.617188 22.714844 C 34.660156 21.710938 35.945312 21.570312 37.320312 21.515625 C 38.523438 21.46875 39.683594 21.421875 40.820312 21.019531 C 41.785156 20.679688 42.636719 20.101562 43.359375 19.386719 C 44.71875 18.054688 45.382812 16.171875 45.664062 14.324219 C 46.050781 12.027344 45.523438 9.757812 44.867188 7.554688 Z M 38.316406 4.304688 C 38.429688 4.179688 38.539062 4.058594 38.644531 3.9375 C 38.644531 3.945312 38.644531 3.945312 38.644531 3.957031 C 38.691406 4.246094 38.972656 4.789062 38.867188 5.007812 C 38.558594 5.679688 37.808594 6.179688 37.339844 6.730469 C 36.695312 7.480469 36.214844 8.445312 36 9.414062 C 35.933594 9.695312 35.960938 9.964844 36.027344 10.21875 C 35.972656 10.164062 35.90625 10.117188 35.851562 10.058594 C 35.429688 9.664062 34.800781 9.007812 34.867188 8.382812 C 34.929688 7.714844 35.511719 7.164062 35.953125 6.710938 C 36.460938 6.207031 37.011719 5.757812 37.5 5.230469 C 37.78125 4.929688 38.035156 4.601562 38.316406 4.304688 Z M 11.136719 36.804688 C 9.917969 36.488281 8.867188 37.132812 8.007812 37.941406 C 7.632812 38.296875 7.292969 38.691406 6.9375 39.074219 C 6.628906 39.414062 6.273438 39.84375 5.839844 40.03125 C 5.746094 40.070312 5.539062 39.992188 5.445312 39.964844 C 5.277344 39.929688 5.101562 39.882812 4.929688 39.835938 C 5.578125 38.914062 6.214844 37.996094 6.984375 37.164062 C 7.855469 36.226562 9.101562 35.210938 10.414062 35.898438 C 10.902344 36.148438 11.316406 36.554688 11.679688 36.976562 C 11.511719 36.917969 11.324219 36.851562 11.136719 36.804688 Z M 20.503906 42.226562 C 20.175781 42.9375 19.507812 43.425781 18.851562 43.800781 C 17.410156 44.625 15.648438 44.980469 14.007812 45.140625 C 13.808594 45.160156 13.601562 45.179688 13.40625 45.1875 C 14.371094 43.472656 16.097656 41.539062 15.007812 39.535156 C 14.539062 38.664062 13.773438 37.929688 13.152344 37.152344 C 12.523438 36.355469 11.867188 35.597656 11.007812 35.0625 C 9.496094 34.125 7.902344 34.941406 6.730469 36 C 5.710938 36.929688 4.941406 38.082031 4.144531 39.207031 C 4.105469 38.832031 4.085938 38.457031 4.070312 38.082031 C 4.03125 37.386719 3.929688 36.703125 3.898438 36 C 3.851562 34.789062 3.84375 33.421875 4.386719 32.316406 C 5.257812 30.542969 7.351562 29.632812 9.234375 29.511719 C 10.304688 29.445312 11.222656 29.804688 12.214844 30.121094 C 13.3125 30.476562 14.390625 30.570312 15.394531 29.914062 C 16.3125 29.316406 16.929688 28.332031 17.652344 27.523438 C 18.5625 26.503906 19.621094 25.59375 20.585938 24.609375 C 22.359375 22.808594 24.132812 20.972656 25.734375 19.03125 C 27.054688 17.429688 28.023438 15.570312 28.414062 13.527344 C 28.519531 13.433594 28.59375 13.304688 28.59375 13.125 C 28.585938 11.625 28.472656 10.125 28.78125 8.652344 C 29.042969 7.414062 29.691406 6.328125 30.609375 5.464844 C 31.492188 4.648438 32.644531 4.164062 33.789062 3.882812 C 35.015625 3.582031 36.261719 3.683594 37.507812 3.675781 C 37.398438 3.789062 37.292969 3.890625 37.199219 4.003906 C 36.910156 4.332031 36.648438 4.660156 36.328125 4.960938 C 35.699219 5.558594 35.023438 6.101562 34.5 6.796875 C 33.992188 7.453125 33.742188 8.175781 33.929688 8.992188 C 34.117188 9.796875 34.78125 10.472656 35.371094 11.007812 C 36.695312 12.1875 38.429688 13.386719 40.226562 12.589844 C 41.128906 12.195312 41.851562 11.429688 42.542969 10.753906 C 42.835938 10.472656 43.125 10.171875 43.386719 9.851562 C 43.40625 10.3125 43.445312 10.773438 43.472656 11.230469 C 43.546875 12.421875 43.386719 13.554688 42.957031 14.679688 C 42.554688 15.722656 41.90625 16.621094 41.089844 17.371094 C 40.171875 18.214844 39.132812 18.65625 37.894531 18.683594 C 36.710938 18.710938 35.523438 18.414062 34.351562 18.648438 C 33.347656 18.84375 32.539062 19.433594 31.835938 20.15625 C 30.984375 21.046875 30.242188 22.070312 29.457031 23.023438 C 28.5 24.1875 27.535156 25.332031 26.550781 26.476562 C 24.695312 28.621094 22.753906 30.695312 20.839844 32.785156 C 20.148438 33.535156 19.527344 34.398438 19.40625 35.4375 C 19.265625 36.683594 19.921875 37.875 20.335938 39.007812 C 20.699219 40.003906 20.972656 41.210938 20.503906 42.226562 Z M 44.230469 16.070312 C 43.554688 18.066406 42.066406 19.601562 40.03125 20.203125 C 38.804688 20.558594 37.492188 20.4375 36.234375 20.550781 C 34.902344 20.664062 33.84375 21.132812 32.867188 22.03125 C 31.929688 22.902344 31.164062 23.992188 30.320312 24.964844 C 29.34375 26.089844 28.359375 27.195312 27.375 28.320312 C 25.96875 29.933594 24.589844 31.566406 23.203125 33.1875 C 22.171875 34.398438 21.226562 35.71875 20.757812 37.238281 C 20.476562 36.496094 20.289062 35.726562 20.578125 34.960938 C 20.953125 33.976562 21.851562 33.226562 22.546875 32.464844 C 23.550781 31.378906 24.554688 30.300781 25.539062 29.195312 C 27.535156 26.953125 29.476562 24.65625 31.359375 22.320312 C 31.996094 21.523438 32.625 20.664062 33.488281 20.089844 C 34.460938 19.433594 35.617188 19.59375 36.722656 19.679688 C 37.875 19.753906 39.027344 19.753906 40.105469 19.285156 C 41.15625 18.824219 42.074219 17.972656 42.777344 17.082031 C 43.460938 16.210938 43.921875 15.195312 44.222656 14.128906 C 44.558594 12.9375 44.539062 11.773438 44.457031 10.546875 C 44.445312 10.359375 44.429688 10.164062 44.417969 9.976562 C 44.851562 11.992188 44.925781 14.023438 44.230469 16.070312 Z M 44.230469 16.070312 "/>
<path style=" stroke:none;fill-rule:nonzero;fill:rgb(0%,0%,0%);fill-opacity:1;" d="M 33.65625 17.183594 C 33.28125 16.527344 32.429688 16.152344 31.808594 15.777344 C 31.480469 15.582031 31.191406 15.375 30.917969 15.09375 C 30.554688 14.710938 30.253906 14.304688 29.804688 14.007812 C 29.25 13.640625 28.800781 14.570312 29.34375 14.933594 C 29.699219 15.167969 29.953125 15.5625 30.234375 15.871094 C 30.496094 16.164062 30.816406 16.378906 31.144531 16.585938 C 31.5 16.808594 31.996094 17.015625 32.371094 17.304688 C 31.640625 17.859375 31.003906 18.507812 30.375 19.171875 C 29.664062 19.929688 28.914062 20.652344 28.171875 21.382812 C 26.632812 22.902344 25.273438 24.582031 23.878906 26.222656 C 23.164062 27.054688 22.40625 27.84375 21.722656 28.6875 C 21.019531 29.558594 20.371094 30.476562 19.707031 31.367188 C 19.210938 32.042969 18.683594 32.691406 18.140625 33.328125 C 17.933594 33.570312 17.671875 33.863281 17.464844 34.179688 C 17.296875 33.9375 17.117188 33.695312 16.941406 33.460938 C 16.648438 33.074219 16.367188 32.652344 15.976562 32.351562 C 15.730469 32.175781 15.476562 32.015625 15.214844 31.867188 C 15.441406 31.78125 15.664062 31.707031 15.890625 31.632812 C 16.378906 31.453125 16.753906 31.21875 17.15625 30.898438 C 17.945312 30.253906 18.65625 29.511719 19.445312 28.867188 C 19.960938 28.453125 19.386719 27.589844 18.863281 28.011719 C 18.113281 28.621094 17.4375 29.304688 16.695312 29.933594 C 16.285156 30.28125 15.898438 30.523438 15.394531 30.703125 C 14.90625 30.882812 14.4375 31.039062 13.988281 31.285156 C 13.988281 31.285156 13.988281 31.285156 13.976562 31.285156 C 13.414062 31.285156 13.285156 32.183594 13.894531 32.304688 C 13.695312 32.269531 13.941406 32.335938 14.007812 32.371094 C 14.136719 32.4375 14.277344 32.511719 14.410156 32.585938 C 14.738281 32.765625 15.066406 32.953125 15.355469 33.179688 C 15.683594 33.421875 15.929688 33.824219 16.171875 34.152344 C 16.472656 34.554688 16.753906 34.96875 17.035156 35.382812 C 17.175781 35.597656 17.398438 35.644531 17.585938 35.578125 C 17.851562 35.644531 18.132812 35.53125 18.160156 35.183594 C 18.195312 34.660156 18.835938 34.097656 19.152344 33.722656 C 19.6875 33.085938 20.195312 32.429688 20.691406 31.753906 C 21.320312 30.898438 21.9375 30.046875 22.601562 29.222656 C 23.25 28.425781 23.980469 27.675781 24.648438 26.886719 C 25.976562 25.332031 27.273438 23.757812 28.707031 22.292969 C 29.398438 21.582031 30.132812 20.925781 30.816406 20.203125 C 31.519531 19.453125 32.203125 18.695312 33.039062 18.085938 C 33.074219 18.054688 33.101562 18.027344 33.132812 17.992188 C 33.507812 18.039062 33.898438 17.605469 33.65625 17.183594 Z M 33.65625 17.183594 "/>
</g>
</svg>
