<?xml version="1.0" encoding="UTF-8"?>
<svg xmlns="http://www.w3.org/2000/svg" xmlns:xlink="http://www.w3.org/1999/xlink" width="48pt" height="48pt" viewBox="0 0 48 48" version="1.1">
<g id="surface2016381">
<path style=" stroke:none;fill-rule:nonzero;fill:rgb(22.745098%,68.627453%,66.274512%);fill-opacity:1;" d="M 37.433594 10.566406 C 37.339844 9.039062 37.210938 7.453125 36.648438 6.007812 C 36.226562 4.929688 35.53125 4.058594 34.378906 4.03125 C 34.304688 4.125 34.179688 4.191406 34.023438 4.191406 C 29.410156 4.210938 24.804688 4.976562 20.289062 5.867188 C 18.132812 6.300781 15.945312 6.582031 13.800781 7.078125 C 13.742188 7.085938 13.6875 7.105469 13.640625 7.117188 C 13.667969 7.132812 13.6875 7.164062 13.714844 7.179688 C 14.625 8.042969 15.019531 9.320312 15.273438 10.507812 C 15.589844 11.972656 15.703125 13.480469 15.722656 14.980469 C 15.769531 18.789062 14.945312 22.519531 14.304688 26.25 C 13.808594 29.183594 13.378906 32.128906 13.226562 35.101562 C 13.117188 37.3125 13.003906 39.964844 14.335938 41.867188 C 15.289062 43.238281 17.476562 44.023438 19.03125 43.273438 C 20.679688 42.476562 20.738281 40.367188 19.941406 38.945312 C 19.613281 38.351562 19.097656 37.640625 18.367188 37.554688 C 17.578125 37.460938 16.921875 38.222656 16.667969 38.886719 C 16.613281 39.039062 16.566406 39.207031 16.527344 39.382812 C 16.59375 39.421875 16.660156 39.46875 16.707031 39.523438 C 16.773438 39.542969 16.847656 39.554688 16.914062 39.570312 C 17.117188 39.609375 17.316406 39.636719 17.523438 39.65625 C 17.933594 39.695312 18.335938 39.730469 18.75 39.730469 C 19.117188 39.730469 19.304688 40.058594 19.285156 40.339844 C 19.359375 40.414062 19.414062 40.507812 19.445312 40.632812 C 19.734375 42.085938 17.898438 42.628906 16.808594 42.214844 C 15.441406 41.699219 15.253906 40.003906 15.628906 38.773438 C 15.890625 37.929688 16.507812 37.097656 17.324219 36.722656 C 17.335938 36.535156 17.429688 36.347656 17.632812 36.242188 C 18.113281 36.019531 18.617188 35.878906 19.144531 35.785156 C 19.105469 35.511719 19.246094 35.230469 19.59375 35.230469 C 22.085938 35.230469 24.535156 35.335938 27 34.914062 C 27.882812 34.761719 28.753906 34.601562 29.617188 34.367188 C 29.992188 34.265625 30.367188 34.164062 30.710938 33.992188 C 30.789062 33.957031 30.863281 33.917969 30.9375 33.863281 C 31.003906 33.367188 31.78125 33.167969 31.921875 33.742188 C 31.976562 33.964844 31.949219 34.152344 31.875 34.3125 C 32.195312 34.273438 32.503906 34.238281 32.820312 34.199219 C 33.421875 34.132812 34.023438 34.105469 34.621094 34.03125 C 34.621094 34.03125 34.621094 34.03125 34.632812 34.03125 C 34.097656 32.484375 33.964844 30.816406 34.050781 29.183594 C 34.097656 28.320312 34.171875 27.429688 34.398438 26.585938 C 34.648438 25.640625 34.929688 24.710938 35.222656 23.773438 C 35.652344 22.367188 36.074219 20.960938 36.382812 19.519531 C 36.675781 18.160156 37.132812 16.828125 37.378906 15.449219 C 37.667969 13.867188 37.527344 12.179688 37.433594 10.566406 Z M 33.414062 16.875 C 33.28125 17.351562 32.71875 17.382812 32.324219 17.53125 C 31.648438 17.785156 30.9375 17.90625 30.253906 18.09375 C 29.398438 18.328125 28.539062 18.460938 27.664062 18.601562 C 26.933594 18.710938 26.195312 18.882812 25.460938 18.984375 C 24.46875 19.117188 23.476562 19.265625 22.460938 19.273438 C 21.617188 19.292969 20.53125 19.3125 19.867188 18.695312 C 19.378906 18.242188 20.054688 17.464844 20.550781 17.914062 C 21.074219 18.402344 22.210938 18.261719 22.855469 18.226562 C 23.710938 18.179688 24.542969 18.054688 25.386719 17.953125 C 26.0625 17.867188 26.738281 17.699219 27.414062 17.597656 C 28.144531 17.484375 28.902344 17.417969 29.617188 17.210938 C 30.273438 17.015625 30.945312 16.902344 31.601562 16.695312 C 31.820312 16.632812 32.023438 16.539062 32.242188 16.472656 C 32.257812 16.460938 32.277344 16.460938 32.304688 16.453125 C 32.382812 16.332031 32.503906 16.246094 32.699219 16.246094 C 32.867188 16.246094 33 16.257812 33.160156 16.3125 C 33.335938 16.386719 33.460938 16.667969 33.414062 16.875 Z M 25.507812 23.832031 C 27.335938 23.699219 29.210938 23.625 31.003906 23.175781 C 31.097656 22.914062 31.378906 22.726562 31.6875 22.902344 C 31.726562 22.921875 31.773438 22.941406 31.808594 22.941406 C 31.988281 22.96875 32.136719 23.109375 32.195312 23.277344 L 32.222656 23.34375 C 32.324219 23.597656 32.164062 23.925781 31.902344 24 C 29.859375 24.609375 27.695312 24.710938 25.585938 24.863281 C 23.585938 25.003906 21.476562 25.199219 19.539062 24.582031 C 18.910156 24.382812 19.105469 23.363281 19.734375 23.570312 C 21.589844 24.160156 23.597656 23.960938 25.507812 23.832031 Z M 32.859375 13.386719 C 31.21875 14.492188 29.109375 14.664062 27.234375 15.074219 C 26.109375 15.328125 24.929688 15.429688 23.785156 15.582031 C 22.566406 15.742188 21.335938 15.851562 20.101562 15.863281 C 19.433594 15.863281 19.359375 14.839844 20.023438 14.832031 C 21.261719 14.820312 22.480469 14.71875 23.710938 14.550781 C 24.804688 14.398438 25.941406 14.304688 27.027344 14.070312 C 28.761719 13.695312 30.777344 13.546875 32.296875 12.523438 C 32.839844 12.160156 33.414062 13.011719 32.859375 13.386719 Z M 18.898438 11.886719 C 21.148438 11.886719 23.410156 12.027344 25.667969 11.90625 C 27.835938 11.792969 30.09375 11.511719 32.015625 10.425781 C 32.585938 10.097656 33.167969 10.949219 32.597656 11.277344 C 28.527344 13.585938 23.464844 12.917969 18.992188 12.910156 C 18.308594 12.910156 18.234375 11.886719 18.898438 11.886719 Z M 19.761719 26.839844 C 19.773438 26.839844 19.78125 26.851562 19.800781 26.851562 C 19.714844 26.820312 19.921875 26.867188 19.949219 26.878906 C 20.136719 26.90625 20.324219 26.925781 20.511719 26.933594 C 21.085938 26.953125 21.648438 26.925781 22.21875 26.886719 C 23.082031 26.832031 23.945312 26.699219 24.804688 26.617188 C 25.988281 26.503906 27.179688 26.363281 28.339844 26.128906 C 28.929688 26.007812 29.523438 25.867188 30.074219 25.640625 C 30.441406 25.5 30.835938 25.332031 31.070312 24.992188 C 31.453125 24.449219 32.222656 25.132812 31.847656 25.679688 C 31.179688 26.605469 29.699219 26.886719 28.660156 27.101562 C 27.382812 27.375 26.101562 27.523438 24.804688 27.648438 C 23.792969 27.742188 22.800781 27.898438 21.777344 27.9375 C 21.179688 27.964844 20.558594 27.984375 19.960938 27.910156 C 19.59375 27.863281 19.144531 27.789062 18.9375 27.449219 C 18.589844 26.898438 19.398438 26.335938 19.761719 26.839844 Z M 19.453125 29.464844 C 19.761719 29.523438 19.847656 29.511719 20.210938 29.511719 C 20.671875 29.511719 21.140625 29.503906 21.601562 29.476562 C 22.800781 29.417969 23.992188 29.316406 25.191406 29.183594 C 26.304688 29.0625 27.429688 28.921875 28.527344 28.6875 C 28.902344 28.601562 29.296875 28.519531 29.652344 28.367188 C 29.679688 28.359375 29.832031 28.285156 29.804688 28.304688 C 29.820312 28.292969 29.839844 28.273438 29.867188 28.265625 C 30.039062 27.851562 30.703125 27.722656 30.816406 28.246094 C 31.003906 29.089844 29.980469 29.382812 29.351562 29.539062 C 28.179688 29.839844 26.972656 30.007812 25.761719 30.148438 C 24.429688 30.308594 23.101562 30.429688 21.769531 30.488281 C 20.953125 30.523438 20.070312 30.617188 19.265625 30.46875 C 18.609375 30.355469 18.804688 29.34375 19.453125 29.464844 Z M 32.203125 31.507812 C 32.023438 31.726562 31.6875 31.800781 31.425781 31.867188 C 30.609375 32.0625 29.773438 32.148438 28.960938 32.324219 C 27.488281 32.652344 26.015625 33.027344 24.515625 33.160156 C 23.042969 33.289062 21.570312 33.289062 20.089844 33.289062 C 19.425781 33.289062 19.351562 32.257812 20.015625 32.257812 C 21.261719 32.257812 22.507812 32.269531 23.746094 32.183594 C 25.003906 32.101562 26.210938 31.875 27.441406 31.601562 C 28.3125 31.414062 29.175781 31.21875 30.054688 31.085938 C 30.375 31.039062 30.683594 30.984375 30.992188 30.910156 C 31.085938 30.882812 31.179688 30.863281 31.285156 30.835938 C 31.367188 30.636719 31.554688 30.507812 31.820312 30.589844 C 32.230469 30.710938 32.523438 31.125 32.203125 31.507812 Z M 33.554688 19.976562 C 33.441406 20.257812 33 20.371094 32.746094 20.457031 C 31.867188 20.757812 30.964844 21 30.066406 21.242188 C 28.59375 21.636719 27.074219 21.917969 25.546875 22.023438 C 23.960938 22.125 22.386719 22.058594 20.804688 22.058594 C 20.136719 22.058594 20.0625 21.027344 20.726562 21.027344 C 23.277344 21.027344 25.820312 21.121094 28.339844 20.617188 C 29.335938 20.417969 30.320312 20.136719 31.285156 19.847656 C 31.601562 19.753906 31.921875 19.648438 32.242188 19.546875 C 32.34375 19.507812 32.445312 19.480469 32.550781 19.445312 C 32.617188 19.304688 32.746094 19.199219 32.960938 19.210938 C 33.402344 19.210938 33.730469 19.5 33.554688 19.976562 Z M 33.554688 19.976562 "/>
<path style=" stroke:none;fill-rule:nonzero;fill:rgb(73.725492%,73.725492%,73.725492%);fill-opacity:1;" d="M 14.136719 10.097656 L 12.617188 10.097656 C 12.582031 10.097656 12.535156 10.097656 12.507812 10.085938 C 12.382812 10.921875 12.515625 11.945312 12.355469 12.824219 C 13.078125 12.675781 13.855469 12.664062 14.539062 12.394531 C 14.445312 11.644531 14.34375 10.855469 14.136719 10.097656 Z M 18.429688 40.753906 C 17.933594 40.753906 17.15625 40.726562 16.566406 40.574219 C 16.648438 40.828125 16.808594 41.042969 17.054688 41.183594 C 17.476562 41.417969 18.507812 41.398438 18.429688 40.753906 Z M 18.429688 40.753906 "/>
<path style=" stroke:none;fill-rule:nonzero;fill:rgb(73.725492%,73.725492%,73.725492%);fill-opacity:1;" d="M 13.613281 8.765625 C 13.132812 7.882812 12.496094 7.320312 11.511719 7.648438 C 10.078125 8.128906 9.101562 9.824219 9.09375 11.304688 C 9.085938 12.074219 9.320312 12.796875 10.023438 13.191406 C 10.238281 13.3125 10.632812 13.527344 10.828125 13.460938 C 10.996094 13.40625 11.054688 13.339844 11.148438 13.132812 C 11.632812 12.039062 11.269531 10.753906 11.53125 9.609375 C 11.605469 9.28125 11.90625 9.167969 12.160156 9.226562 C 12.234375 9.121094 12.355469 9.054688 12.523438 9.054688 L 13.753906 9.054688 C 13.714844 8.972656 13.667969 8.867188 13.613281 8.765625 Z M 36.703125 34.257812 C 36.683594 34.304688 36.65625 34.351562 36.617188 34.398438 C 36.289062 34.78125 35.726562 34.902344 35.257812 34.988281 C 34.640625 35.101562 34.011719 35.148438 33.382812 35.195312 C 31.601562 35.34375 29.839844 35.691406 28.070312 35.945312 C 26.183594 36.226562 24.289062 36.515625 22.386719 36.589844 C 21.394531 36.628906 20.324219 36.609375 19.320312 36.796875 C 20.117188 37.21875 20.710938 38.054688 21.046875 38.859375 C 21.703125 40.40625 21.65625 42.253906 20.464844 43.492188 C 23.351562 43.453125 26.242188 43.695312 29.128906 43.554688 C 32.035156 43.414062 35.503906 43.125 37.835938 41.175781 C 38.867188 40.320312 39.488281 39.121094 39.648438 37.800781 C 39.84375 36.121094 38.652344 33.863281 36.703125 34.257812 Z M 36.703125 34.257812 "/>
<path style=" stroke:none;fill-rule:nonzero;fill:rgb(0.392157%,0.392157%,0.392157%);fill-opacity:1;" d="M 39.84375 34.679688 C 39.046875 33.488281 37.726562 32.980469 36.335938 33.28125 C 36.140625 33.320312 36.039062 33.441406 36 33.582031 C 35.945312 33.609375 35.886719 33.65625 35.832031 33.710938 C 35.792969 33.75 35.746094 33.789062 35.699219 33.816406 L 35.691406 33.804688 C 35.664062 33.75 35.632812 33.710938 35.597656 33.675781 C 34.800781 31.339844 34.894531 28.640625 35.539062 26.296875 C 35.925781 24.898438 36.382812 23.523438 36.789062 22.125 C 37.191406 20.726562 37.460938 19.3125 37.835938 17.914062 C 38.195312 16.585938 38.53125 15.261719 38.578125 13.882812 C 38.597656 13.210938 38.539062 12.515625 38.511719 11.839844 C 38.464844 10.320312 38.371094 8.785156 38.0625 7.292969 C 37.632812 5.175781 36.507812 2.71875 33.9375 3.027344 C 33.804688 3.046875 33.703125 3.09375 33.628906 3.167969 C 28.929688 3.214844 24.253906 4.039062 19.660156 4.949219 C 18.554688 5.164062 17.445312 5.335938 16.332031 5.523438 C 15.757812 5.625 15.1875 5.726562 14.625 5.851562 C 14.195312 5.933594 13.742188 6.085938 13.304688 6.121094 C 12.742188 6.179688 12.179688 6.300781 11.625 6.414062 C 11.257812 6.488281 10.480469 6.542969 10.304688 6.964844 C 10.285156 7.011719 10.273438 7.058594 10.265625 7.097656 C 8.914062 7.96875 8.15625 9.742188 8.070312 11.296875 C 8.015625 12.28125 8.390625 13.292969 9.195312 13.894531 C 9.804688 14.34375 10.773438 14.765625 11.476562 14.316406 C 11.523438 14.296875 11.578125 14.269531 11.632812 14.230469 C 12.46875 13.585938 13.640625 13.734375 14.632812 13.453125 C 14.71875 14.605469 14.71875 15.769531 14.671875 16.921875 C 14.605469 18.496094 14.324219 20.054688 14.0625 21.609375 C 13.574219 24.582031 13.003906 27.542969 12.609375 30.535156 C 12.273438 33.113281 12 35.792969 12.214844 38.398438 C 12.308594 39.554688 12.5625 40.714844 13.078125 41.746094 C 13.546875 42.683594 14.222656 43.367188 15.132812 43.894531 C 16.238281 44.53125 17.652344 44.785156 18.890625 44.429688 C 18.984375 44.511719 19.105469 44.558594 19.257812 44.558594 C 22.191406 44.417969 25.144531 44.691406 28.085938 44.625 C 31.21875 44.550781 34.621094 44.296875 37.40625 42.722656 C 39.09375 41.765625 40.273438 40.191406 40.613281 38.269531 C 40.835938 37.023438 40.546875 35.726562 39.84375 34.679688 Z M 12.167969 9.242188 C 11.914062 9.1875 11.617188 9.300781 11.539062 9.628906 C 11.277344 10.773438 11.632812 12.046875 11.15625 13.152344 C 11.070312 13.351562 11.007812 13.425781 10.835938 13.480469 C 10.640625 13.546875 10.238281 13.320312 10.03125 13.210938 C 9.328125 12.816406 9.09375 12.09375 9.101562 11.324219 C 9.113281 9.84375 10.078125 8.148438 11.523438 7.667969 C 12.507812 7.339844 13.144531 7.894531 13.621094 8.785156 C 13.679688 8.886719 13.726562 8.992188 13.773438 9.09375 L 12.542969 9.09375 C 12.367188 9.074219 12.242188 9.140625 12.167969 9.242188 Z M 12.347656 12.835938 C 12.515625 11.945312 12.375 10.929688 12.496094 10.097656 C 12.535156 10.105469 12.570312 10.105469 12.609375 10.105469 L 14.128906 10.105469 C 14.335938 10.855469 14.445312 11.652344 14.523438 12.402344 C 13.847656 12.675781 13.078125 12.683594 12.347656 12.835938 Z M 19.03125 43.273438 C 17.476562 44.023438 15.289062 43.238281 14.335938 41.867188 C 13.003906 39.957031 13.125 37.3125 13.226562 35.101562 C 13.378906 32.128906 13.808594 29.183594 14.304688 26.25 C 14.945312 22.507812 15.769531 18.789062 15.722656 14.980469 C 15.703125 13.480469 15.582031 11.980469 15.273438 10.507812 C 15.019531 9.320312 14.617188 8.042969 13.714844 7.179688 C 13.6875 7.164062 13.667969 7.132812 13.640625 7.117188 C 13.695312 7.105469 13.753906 7.097656 13.800781 7.078125 C 15.945312 6.589844 18.132812 6.300781 20.289062 5.867188 C 24.796875 4.976562 29.398438 4.210938 34.023438 4.191406 C 34.191406 4.191406 34.304688 4.125 34.378906 4.03125 C 35.53125 4.058594 36.226562 4.929688 36.648438 6.007812 C 37.210938 7.445312 37.351562 9.039062 37.433594 10.566406 C 37.527344 12.179688 37.667969 13.867188 37.378906 15.460938 C 37.132812 16.828125 36.675781 18.160156 36.382812 19.527344 C 36.074219 20.972656 35.664062 22.378906 35.222656 23.785156 C 34.929688 24.722656 34.648438 25.648438 34.398438 26.597656 C 34.171875 27.441406 34.097656 28.320312 34.050781 29.195312 C 33.964844 30.824219 34.097656 32.492188 34.632812 34.039062 C 34.632812 34.039062 34.632812 34.039062 34.621094 34.039062 C 34.023438 34.117188 33.421875 34.144531 32.820312 34.210938 C 32.503906 34.238281 32.195312 34.285156 31.875 34.320312 C 31.960938 34.164062 31.976562 33.976562 31.921875 33.75 C 31.773438 33.1875 31.003906 33.382812 30.9375 33.871094 C 30.863281 33.929688 30.789062 33.964844 30.710938 34.003906 C 30.367188 34.164062 29.980469 34.273438 29.617188 34.378906 C 28.753906 34.613281 27.882812 34.773438 27 34.921875 C 24.535156 35.34375 22.078125 35.242188 19.59375 35.242188 C 19.246094 35.242188 19.105469 35.523438 19.144531 35.792969 C 18.617188 35.886719 18.113281 36.027344 17.632812 36.253906 C 17.429688 36.355469 17.335938 36.542969 17.324219 36.730469 C 16.507812 37.105469 15.890625 37.941406 15.628906 38.785156 C 15.253906 40.011719 15.441406 41.710938 16.808594 42.226562 C 17.898438 42.636719 19.742188 42.09375 19.445312 40.640625 C 19.414062 40.519531 19.359375 40.425781 19.285156 40.351562 C 19.304688 40.070312 19.117188 39.75 18.75 39.742188 C 18.335938 39.742188 17.925781 39.710938 17.523438 39.664062 C 17.316406 39.648438 17.109375 39.617188 16.914062 39.582031 C 16.847656 39.570312 16.773438 39.554688 16.707031 39.535156 C 16.660156 39.476562 16.601562 39.421875 16.527344 39.394531 C 16.566406 39.214844 16.613281 39.039062 16.667969 38.898438 C 16.921875 38.230469 17.578125 37.472656 18.367188 37.566406 C 19.097656 37.648438 19.613281 38.363281 19.941406 38.953125 C 20.738281 40.367188 20.679688 42.488281 19.03125 43.273438 Z M 16.566406 40.574219 C 17.15625 40.734375 17.933594 40.753906 18.429688 40.753906 C 18.507812 41.398438 17.484375 41.417969 17.054688 41.183594 C 16.808594 41.054688 16.648438 40.828125 16.566406 40.574219 Z M 39.636719 37.800781 C 39.476562 39.121094 38.859375 40.320312 37.828125 41.175781 C 35.492188 43.117188 32.023438 43.414062 29.117188 43.554688 C 26.230469 43.695312 23.34375 43.453125 20.457031 43.492188 C 21.648438 42.261719 21.695312 40.40625 21.039062 38.859375 C 20.691406 38.054688 20.109375 37.21875 19.3125 36.796875 C 20.316406 36.609375 21.394531 36.636719 22.378906 36.589844 C 24.28125 36.515625 26.175781 36.214844 28.058594 35.945312 C 29.820312 35.679688 31.59375 35.34375 33.375 35.195312 C 34.003906 35.136719 34.632812 35.101562 35.25 34.988281 C 35.726562 34.902344 36.28125 34.78125 36.609375 34.398438 C 36.648438 34.351562 36.675781 34.304688 36.695312 34.257812 C 38.652344 33.863281 39.84375 36.121094 39.636719 37.800781 Z M 39.636719 37.800781 "/>
<path style=" stroke:none;fill-rule:nonzero;fill:rgb(0.392157%,0.392157%,0.392157%);fill-opacity:1;" d="M 32.007812 10.425781 C 30.09375 11.511719 27.824219 11.792969 25.660156 11.90625 C 23.410156 12.019531 21.148438 11.886719 18.890625 11.886719 C 18.226562 11.886719 18.308594 12.917969 18.964844 12.917969 C 23.445312 12.929688 28.5 13.59375 32.570312 11.289062 C 33.160156 10.949219 32.578125 10.097656 32.007812 10.425781 Z M 32.289062 12.535156 C 30.777344 13.554688 28.761719 13.707031 27.019531 14.082031 C 25.929688 14.316406 24.796875 14.417969 23.699219 14.558594 C 22.480469 14.71875 21.253906 14.832031 20.015625 14.839844 C 19.351562 14.839844 19.433594 15.871094 20.089844 15.871094 C 21.328125 15.863281 22.546875 15.75 23.773438 15.589844 C 24.917969 15.441406 26.101562 15.328125 27.226562 15.085938 C 29.109375 14.671875 31.21875 14.503906 32.851562 13.398438 C 33.414062 13.011719 32.839844 12.160156 32.289062 12.535156 Z M 33.132812 16.3125 C 32.972656 16.257812 32.839844 16.246094 32.671875 16.246094 C 32.476562 16.246094 32.351562 16.332031 32.277344 16.453125 C 32.257812 16.460938 32.242188 16.460938 32.210938 16.472656 C 31.996094 16.539062 31.789062 16.632812 31.574219 16.695312 C 30.917969 16.902344 30.242188 17.015625 29.585938 17.210938 C 28.882812 17.429688 28.117188 17.484375 27.382812 17.597656 C 26.710938 17.699219 26.035156 17.859375 25.359375 17.953125 C 24.515625 18.066406 23.679688 18.179688 22.828125 18.226562 C 22.179688 18.261719 21.046875 18.402344 20.523438 17.914062 C 20.035156 17.464844 19.351562 18.242188 19.835938 18.695312 C 20.503906 19.304688 21.589844 19.285156 22.433594 19.273438 C 23.4375 19.257812 24.441406 19.117188 25.433594 18.984375 C 26.175781 18.890625 26.90625 18.710938 27.636719 18.601562 C 28.507812 18.46875 29.382812 18.335938 30.226562 18.09375 C 30.917969 17.898438 31.621094 17.785156 32.296875 17.53125 C 32.691406 17.382812 33.253906 17.351562 33.382812 16.875 C 33.460938 16.667969 33.335938 16.386719 33.132812 16.3125 Z M 32.953125 19.199219 C 32.738281 19.191406 32.605469 19.292969 32.539062 19.433594 C 32.4375 19.472656 32.335938 19.507812 32.230469 19.539062 C 31.914062 19.640625 31.59375 19.742188 31.273438 19.835938 C 30.308594 20.136719 29.316406 20.410156 28.332031 20.605469 C 25.808594 21.113281 23.277344 21.027344 20.71875 21.019531 C 20.054688 21.019531 20.136719 22.050781 20.792969 22.050781 C 22.378906 22.050781 23.953125 22.117188 25.539062 22.011719 C 27.066406 21.917969 28.585938 21.636719 30.054688 21.234375 C 30.957031 20.992188 31.855469 20.746094 32.738281 20.445312 C 32.992188 20.363281 33.429688 20.25 33.542969 19.96875 C 33.730469 19.5 33.402344 19.210938 32.953125 19.199219 Z M 32.222656 23.335938 L 32.195312 23.269531 C 32.128906 23.109375 31.988281 22.960938 31.808594 22.929688 C 31.761719 22.929688 31.726562 22.921875 31.6875 22.894531 C 31.378906 22.707031 31.097656 22.894531 31.003906 23.164062 C 29.210938 23.617188 27.335938 23.691406 25.507812 23.820312 C 23.597656 23.953125 21.601562 24.148438 19.742188 23.558594 C 19.117188 23.351562 18.917969 24.375 19.546875 24.570312 C 21.488281 25.191406 23.597656 24.992188 25.59375 24.851562 C 27.703125 24.703125 29.867188 24.601562 31.914062 23.992188 C 32.164062 23.914062 32.316406 23.585938 32.222656 23.335938 Z M 31.058594 24.992188 C 30.824219 25.332031 30.429688 25.492188 30.066406 25.640625 C 29.503906 25.855469 28.914062 26.007812 28.332031 26.128906 C 27.167969 26.363281 25.976562 26.503906 24.796875 26.617188 C 23.933594 26.699219 23.082031 26.832031 22.210938 26.886719 C 21.648438 26.925781 21.074219 26.945312 20.503906 26.933594 C 20.316406 26.925781 20.128906 26.90625 19.941406 26.878906 C 19.921875 26.878906 19.707031 26.820312 19.789062 26.851562 C 19.773438 26.839844 19.761719 26.839844 19.753906 26.839844 C 19.386719 26.34375 18.582031 26.90625 18.929688 27.460938 C 19.132812 27.796875 19.59375 27.882812 19.949219 27.917969 C 20.550781 27.992188 21.160156 27.976562 21.769531 27.945312 C 22.789062 27.898438 23.785156 27.75 24.796875 27.65625 C 26.089844 27.535156 27.382812 27.375 28.648438 27.113281 C 29.691406 26.898438 31.171875 26.617188 31.835938 25.6875 C 32.222656 25.132812 31.445312 24.449219 31.058594 24.992188 Z M 30.816406 28.257812 C 30.703125 27.730469 30.039062 27.863281 29.867188 28.273438 C 29.851562 28.285156 29.832031 28.304688 29.804688 28.3125 C 29.832031 28.292969 29.679688 28.367188 29.652344 28.378906 C 29.289062 28.519531 28.902344 28.613281 28.527344 28.695312 C 27.429688 28.941406 26.304688 29.070312 25.191406 29.195312 C 24 29.324219 22.800781 29.429688 21.601562 29.484375 C 21.140625 29.503906 20.671875 29.523438 20.210938 29.523438 C 19.855469 29.523438 19.761719 29.53125 19.453125 29.476562 C 18.796875 29.351562 18.601562 30.367188 19.257812 30.488281 C 20.0625 30.636719 20.953125 30.554688 21.757812 30.507812 C 23.089844 30.441406 24.429688 30.320312 25.753906 30.167969 C 26.953125 30.027344 28.164062 29.859375 29.34375 29.558594 C 29.972656 29.390625 31.003906 29.109375 30.816406 28.257812 Z M 31.828125 30.589844 C 31.554688 30.507812 31.367188 30.648438 31.292969 30.835938 C 31.199219 30.863281 31.105469 30.890625 31.003906 30.910156 C 30.695312 30.984375 30.375 31.039062 30.066406 31.085938 C 29.183594 31.21875 28.320312 31.414062 27.449219 31.601562 C 26.222656 31.867188 25.011719 32.089844 23.757812 32.183594 C 22.519531 32.269531 21.261719 32.257812 20.023438 32.257812 C 19.359375 32.257812 19.445312 33.289062 20.101562 33.289062 C 21.570312 33.289062 23.054688 33.289062 24.523438 33.160156 C 26.023438 33.027344 27.496094 32.652344 28.96875 32.324219 C 29.785156 32.148438 30.617188 32.0625 31.433594 31.867188 C 31.695312 31.800781 32.035156 31.726562 32.210938 31.507812 C 32.523438 31.125 32.230469 30.710938 31.828125 30.589844 Z M 31.828125 30.589844 "/>
</g>
</svg>
